/* XPM */
static char *result[] = {
/* columns rows colors chars-per-pixel */
"40 40 212 2 ",
"   c black",
".  c #010001",
"X  c #010101",
"o  c #020201",
"O  c #020202",
"+  c #020302",
"@  c #030302",
"#  c gray1",
"$  c #040403",
"%  c #040404",
"&  c #050504",
"*  c gray2",
"=  c #060605",
"-  c #060606",
";  c #070707",
":  c gray3",
">  c #090909",
",  c gray4",
"<  c #0B0B0B",
"1  c #0C0C0C",
"2  c #0C0C0D",
"3  c gray5",
"4  c #0E0E0E",
"5  c gray6",
"6  c #101010",
"7  c #111111",
"8  c #131313",
"9  c #131414",
"0  c gray8",
"q  c #151515",
"w  c #161615",
"e  c #161616",
"r  c gray9",
"t  c #191919",
"y  c gray10",
"u  c #1A1B1B",
"i  c #1B1B1B",
"p  c gray11",
"a  c #1D1D1D",
"s  c #1D1E1D",
"d  c #1E1E1E",
"f  c gray12",
"g  c #202020",
"h  c gray13",
"j  c #222222",
"k  c #232323",
"l  c gray14",
"z  c #252525",
"x  c gray15",
"c  c #272727",
"v  c #282828",
"b  c gray16",
"n  c #2C2D2C",
"m  c gray18",
"M  c #2F2F2F",
"N  c #2F302F",
"B  c #313131",
"V  c #323232",
"C  c #343434",
"Z  c #353535",
"A  c gray21",
"S  c #363736",
"D  c #393939",
"F  c gray23",
"G  c #3C3C3C",
"H  c #3E3E3E",
"J  c #3E3F3F",
"K  c #3F4040",
"L  c gray25",
"P  c #414141",
"I  c gray26",
"U  c #434343",
"Y  c #444444",
"T  c gray27",
"R  c gray28",
"E  c #484848",
"W  c #484949",
"Q  c #494949",
"!  c gray29",
"~  c #4B4B4B",
"^  c #4C4C4C",
"/  c #4E4E4E",
"(  c #515151",
")  c gray32",
"_  c gray33",
"`  c #555555",
"'  c #565656",
"]  c #585858",
"[  c gray35",
"{  c #5A5A5A",
"}  c #5B5B5B",
"|  c gray36",
" . c #5D5D5D",
".. c gray37",
"X. c #5F5F5F",
"o. c #606060",
"O. c gray38",
"+. c #626262",
"@. c gray39",
"#. c gray40",
"$. c #676767",
"%. c #6E6F6E",
"&. c #6F6F6F",
"*. c gray44",
"=. c #717171",
"-. c #717271",
";. c gray45",
":. c gray46",
">. c #757675",
",. c #777777",
"<. c gray47",
"1. c #797979",
"2. c gray48",
"3. c #7C7C7C",
"4. c #7E7E7E",
"5. c gray50",
"6. c #7F807F",
"7. c #818181",
"8. c #818281",
"9. c gray51",
"0. c #828382",
"q. c #838383",
"w. c #848484",
"e. c #848584",
"r. c gray52",
"t. c #868686",
"y. c gray53",
"u. c #888888",
"i. c #898989",
"p. c gray54",
"a. c #8B8B8B",
"s. c gray55",
"d. c #8D8D8D",
"f. c #8E8E8E",
"g. c gray56",
"h. c #909090",
"j. c gray57",
"k. c #929292",
"l. c #939393",
"z. c gray58",
"x. c gray59",
"c. c #989898",
"v. c gray60",
"b. c #9A9A9A",
"n. c #9B9B9B",
"m. c gray62",
"M. c #9F9F9F",
"N. c #A0A0A0",
"B. c gray63",
"V. c gray64",
"C. c #A4A4A4",
"Z. c #A5A5A5",
"A. c gray66",
"S. c #A9A9A9",
"D. c #AAAAAA",
"F. c gray67",
"G. c #ACACAC",
"H. c gray68",
"J. c #AFAFAF",
"K. c gray69",
"L. c #B1B1B1",
"P. c #B2B2B2",
"I. c gray70",
"U. c #B4B4B4",
"Y. c #B6B6B6",
"T. c gray72",
"R. c #B9B9B9",
"E. c gray73",
"W. c #BBBBBB",
"Q. c #BCBCBC",
"!. c #BCBDBC",
"~. c gray74",
"^. c gray",
"/. c #C1C1C1",
"(. c gray76",
"). c gray77",
"_. c #C6C6C6",
"`. c gray78",
"'. c #C7C8C7",
"]. c #C8C8C8",
"[. c #CACACA",
"{. c #CBCBCB",
"}. c #D0D0D0",
"|. c LightGray",
" X c #D5D5D5",
".X c gray84",
"XX c #DADADA",
"oX c gainsboro",
"OX c gray88",
"+X c #E2E2E2",
"@X c #E6E6E6",
"#X c #E7E8E8",
"$X c gray91",
"%X c #EAEAEA",
"&X c gray92",
"*X c gray93",
"=X c #EEEEEE",
"-X c #EFEFEF",
";X c gray94",
":X c #F1F1F1",
">X c gray95",
",X c #F3F3F3",
"<X c #F4F4F4",
"1X c gray96",
"2X c #F6F6F6",
"3X c gray97",
"4X c gray98",
"5X c #FBFBFB",
"6X c gray99",
"7X c #FDFDFD",
"8X c #FEFEFE",
"9X c white",
/* pixels */
"                  @ * #                                 $ * O                   ",
"                & $                                       X % %                 ",
"            O = X                                             O = X             ",
"          @ &                                                   X = o           ",
"        # *                                                         & X         ",
"      o *     X   0 g d g r   1 f d g y p f d f ,   X                 * X       ",
"      *     X   p           0                     >                   X *       ",
"    & X   X   k   ..j.t.l.2.  ! f.u.h.r.q.d.a.d.T   ,                   O %     ",
"  @ %   X   x   #.2X9X9X7X5.  s.9X9X9Xb.1X9X9X9Xt.  s                     & o   ",
"  &   X   l   ] <X9X9X5X>.    w.9X9Xy.  2X9X7X9Xq.  a                     X &   ",
"# #     j   W ;X9X8X9Xw.  C   p.9Xx.  ( 1X9X8X9X9.  a                       % O ",
"& X   f   A &X9X7X9Xg.  v r   p.A.  z x <X9X6X9Xu.  d                       X & ",
"&   p   u @X9X7X9Xv.  v   O   y   B   s.9X7X9X*XU   6                         % ",
"  y     OX9X6X9XV.  c       O   M   3.6X9X9X,X_   y                           O ",
"8     XX9X6X9XJ.  V a p a y   z   &.4X9X9X3X+.  l   X                           ",
"    |.9X6X9XH.              p   @.2X9X9X4X&.  m   #                             ",
"  ].9X5X9XoX%.r.0.9.9.8.w.<.  / :X9X7X8X9.  M   h   O                           ",
"* -X9X8X9X7X9X9X9X9X9X9X9X*X  s.9X6X9X>Xp c   J.i.  i                           ",
"  $X9X6X7X8X7X7X7X7X8X7X9X%X  t.9X7X9X<X~   N.9Xr.  a                           ",
"  :X9X9X9X9X9X9X9X9X8X8X9X&X  y.9X7X9X1X  k.9X9X7.  a                           ",
"X z.C.N.B.B.B.V.c.`.9X7X9X&X  i.9X9X9X,Xm.9X9X9Xt.  a                           ",
"                  z.9X6X9X%X  I r.9.w.2.5.y.6.e.L   >                 X         ",
"  f k j j j h V   M.9X5X9X$X                      :                 # 3         ",
"              j   N.9X9X9X*X    d d d i t d a d ,     X e -       X     O       ",
"              f   h.;X#X=X.X  c g   4         X   q 1       t y #   b 4..   O   ",
"                          9   :. .    r 7 > 1 ; r     + a.=.    <   Z c.  7 X   ",
"                          w   <.o.  J             i.@.  .X~.a.U.  Q P.G.  g     ",
"                  O * * # t   1.' R W.q.Y.Z.A.S.V.'.U.G._.E.Y.=XS.T.R.q.  p   X ",
"#                         r   <.O.  F.E.! S F G m *.E N x   &.9.  -.T   5     % ",
"&                         r   <.O.  ^ ..                                %     & ",
"$ O                       e   ,.O.  $.c 3.o._ } z ,.,.G K ^ ` { +.;._ C   # # # ",
"X &                       r   2.|   +Xx. XW.n.F.$.P.E.^.[.N./.R.E.{.K.)   > *   ",
"  $ @                     e   1.Y j.}.U.}.H.^.Q.D /.L.L.D.I.).!.`.(.H.c   - #   ",
"    *                     #   z e H   P [ , ] ^   X.I 5   R 2 n ` U m X O &     ",
"    o &                     #       X           7       %               & X     ",
"      # %                     % O : # , 7 # 4 1   6 : - * 1 % ; 6 < - * O       ",
"        % #                                                         $ #         ",
"          % $                                                     & $           ",
"            $ &                                                 * @             ",
"              O = X                                         O * X               "
};
