/* XPM */
static char *result[] = {
/* columns rows colors chars-per-pixel */
"32 32 176 2 ",
"   c #010D0A",
".  c #071916",
"X  c #0B1917",
"o  c #0D1A19",
"O  c #031417",
"+  c #131B19",
"@  c #171C1B",
"#  c #1D1A24",
"$  c #271F26",
"%  c #291D22",
"&  c #1C2123",
"*  c #172122",
"=  c #232125",
"-  c #2C2226",
";  c #2D2228",
":  c #2E2A2B",
">  c #24262C",
",  c #302329",
"<  c #372A29",
"1  c #262A32",
"2  c #272D39",
"3  c #2C2F39",
"4  c #282A33",
"5  c #3C2F3D",
"6  c #392932",
"7  c #2F303D",
"8  c #31303B",
"9  c #423728",
"0  c #472935",
"q  c #4B2E34",
"w  c #5A2E3D",
"e  c #572639",
"r  c #4F3B3A",
"t  c #5E313E",
"y  c #523B3A",
"u  c #6E283E",
"i  c #5F423F",
"p  c #60433F",
"a  c #373543",
"s  c #493644",
"d  c #4C374A",
"f  c #4A3847",
"g  c #5D3245",
"h  c #593B49",
"j  c #5A3F42",
"k  c #6D2D43",
"l  c #6F3148",
"z  c #683449",
"x  c #743246",
"c  c #72344A",
"v  c #7A374C",
"b  c #7B3B54",
"n  c #414C4D",
"m  c #5D4240",
"M  c #644441",
"N  c #654C40",
"B  c #734544",
"V  c #744948",
"C  c #615458",
"Z  c #9B543B",
"A  c #BC5E3B",
"S  c #BE513C",
"D  c #BD613B",
"F  c #CE5C3B",
"G  c #C2623C",
"H  c #CD613F",
"J  c #D2623F",
"K  c #87364E",
"L  c #9A3C49",
"P  c #863352",
"I  c #863A55",
"U  c #8D3C56",
"Y  c #8A3C58",
"T  c #883552",
"R  c #923F54",
"E  c #8C454D",
"W  c #8D4A4D",
"Q  c #874A49",
"!  c #93464C",
"~  c #984A4D",
"^  c #944054",
"/  c #9C4452",
"(  c #9F4F57",
")  c #904058",
"_  c #955656",
"`  c #9E5357",
"'  c #A5474F",
"]  c #A4494F",
"[  c #AA4B4F",
"{  c #AC5741",
"}  c #BD5545",
"|  c #B25942",
" . c #B6564B",
".. c #B8574C",
"X. c #A34C53",
"o. c #A04651",
"O. c #A65254",
"+. c #AE5A59",
"@. c #A55259",
"#. c #B55D52",
"$. c #B05A5A",
"%. c #B27448",
"&. c #BF6C56",
"*. c #8F4461",
"=. c #964962",
"-. c #A05F76",
";. c #98666E",
":. c #946677",
">. c #AE6164",
",. c #B26165",
"<. c #A16178",
"1. c #A9667B",
"2. c #AD6A79",
"3. c #A16177",
"4. c #B26E7C",
"5. c #BE7C7B",
"6. c #C45A46",
"7. c #C86A44",
"8. c #D46240",
"9. c #D86A43",
"0. c #DD7145",
"q. c #C16D58",
"w. c #C97A56",
"e. c #CE7E5B",
"r. c #C6705B",
"t. c #D07C58",
"y. c #EF7E42",
"u. c #F27F42",
"i. c #DD8955",
"p. c #D78259",
"a. c #DF8653",
"s. c #EF864A",
"d. c #ED8547",
"f. c #F38645",
"g. c #F3924F",
"h. c #E98F52",
"j. c #EA9256",
"k. c #E6935C",
"l. c #E9955C",
"z. c #EE9B5C",
"x. c #FC9E54",
"c. c #FDA255",
"v. c #FFAB56",
"b. c #FFAD5D",
"n. c #FFB15D",
"m. c #C5847A",
"M. c #DE8D72",
"N. c #EB9F67",
"B. c #F09060",
"V. c #D1A06E",
"C. c #F3A667",
"Z. c #ECA87D",
"A. c #E5A47B",
"S. c #FDB678",
"D. c #FFC07F",
"F. c #AE7084",
"G. c #B17387",
"H. c #A0A6A7",
"J. c #CEAFBB",
"K. c #D2B3BF",
"L. c #D2BFB1",
"P. c #FFC689",
"I. c #FFC98A",
"U. c #E5C6BC",
"Y. c #ECCABD",
"T. c #FED3B5",
"R. c #D2D0D4",
"E. c #EDCAC0",
"W. c #F3D3C0",
"Q. c #E8D7DF",
"!. c #E6D8DD",
"~. c #F6E2DB",
"^. c #FFF3DF",
"/. c #E8D9E2",
"(. c #FFF6E1",
"). c None",
/* pixels */
").).).).).).).).).).).).).).).).).).).).).).).).).).).).).).).).",
").).).).).).).).).).).).).).).).).).).).).).).).).).).).).).).).",
").).).).).).).).).).).).).).).).).).).).).).).).).).).).).).).).",
").).).).).).).).).).).).).).).).).).).).).).).).).).).).).).).).",
").).).).).).).).).).).).).).).).).).@ @ + + + + + + ).).).).).).",
").).).).).).).).).).).).).).).).).).+ @ $ ; - - ; ; ).).).).).).",
").).).).).).).).).).).).).).+ o o o o $ w c x k k w - . ).).).).",
").).).).).).).).).).).).).).; % , ; $ 0 v =.1.4.,.W q ; ).).).).",
").).).).).).).).).).o . . % e u u k k c K 1.K.E.P.q.W t - . ).).",
").).).).).).).).).).; < 9 p ;.F.G.2.,.O.^ <.K.W.S.h.$.c 0 - ).).",
").).).).).).).).o ; g Q %.V.U.Q./.U.A.t.X.*.3.m.C.l.+.I v t ; o ",
").).).).).).).).- 0 v O.t.Z.Y.Q.~.T.S.h.&.` U X.e.p.#./ / c , o ",
").).).).).).  % e x K ^ O.>.2.5.M.l.s.s.j.e.( U ( #.7.6.X.l , o ",
").).).).).).n C :.F.F.3.) P P ! S F F 0.g.j.q.( U ' J 8.~ g ; + ",
").).).).  n H.R.!.!.Q.J.<.T U ^ o.o.'  .0.s.j.e.@.o.8.G V 5 = + ",
").).).).$ C L.^.^.^.^.Y.5.O.] / R Y U / } 0.g.a._ ! H G M 2 & + ",
").).+ ; w _ A.I.P.P.P.S.N.a.9.} / Y Y R /  .0.7.V B G G M 2 & + ",
").).+ , l +.j.v.v.v.v.v.n.v.s.0. ./ R U U ' J A i j { | M 2 & @ ",
").).+ , l +.k.n.b.v.b.b.b.b.c.g.0.6.o.U Y X.8.D i f E E h 3 = + ",
").).+ ; l +.k.n.C.b.b.b.b.b.b.c.y.6.~ b Y [ 8.D M f b b s 4 & + ",
").).+ , l +.k.n.n.b.b.b.b.b.n.x.y.F B h b X.8.G M f b v 6 * ).).",
").).+ , l $.k.n.n.n.b.b.b.n.b.x.y.A m s z ! { Z y 5 z t ; X ).).",
").).+ , l $.l.n.b.b.b.b.n.n.b.c.y.A m a f h M r : & ; ; ).).).).",
").).+ , w W w.z.b.n.n.b.C.n.n.c.y.A M a 3 3 a 1 * + X o ).).).).",
").).).).- q W r.z.n.n.n.n.n.n.c.f.G M 8 > * & & ).).).).).).).).",
").).).).. = w W w.l.l.k.k.k.k.i.7.Z y 4 & + + + ).).).).).).).).",
").).).).).).$ q W +.$.+.+.+.+.` V y : # ).).).).).).).).).).).).",
").).).).).).. - w c l c l l c g 5 4 * + ).).).).).).).).).).).).",
").).).).).).).).- , , , , , , ; = & ).).).).).).).).).).).).).).",
").).).).).).).).+ + + + + + + + + + ).).).).).).).).).).).).).).",
").).).).).).).).).).).).).).).).).).).).).).).).).).).).).).).).",
").).).).).).).).).).).).).).).).).).).).).).).).).).).).).).).)."
};
