/* XPM */
static char *result[] = {
/* columns rows colors chars-per-pixel */
"40 40 208 2 ",
"   c #020101",
".  c #090604",
"X  c #0C0A05",
"o  c #01020A",
"O  c #0D0508",
"+  c #060908",
"@  c #0E0B09",
"#  c #110300",
"$  c #110C05",
"%  c #12060B",
"&  c #1F0608",
"*  c #130D0A",
"=  c #190E0D",
"-  c #0E1001",
";  c #131305",
":  c #181800",
">  c #15120C",
",  c #1B120E",
"<  c #1C1B0E",
"1  c #000611",
"2  c #000B14",
"3  c #100D12",
"4  c #09171C",
"5  c #141313",
"6  c #1C1511",
"7  c #171810",
"8  c #1D1B13",
"9  c #12191B",
"0  c #1D1C1B",
"q  c #2B0000",
"w  c #360000",
"e  c #3B0000",
"r  c #20110F",
"t  c #211F0B",
"y  c #3E1700",
"u  c #270D15",
"i  c #231412",
"p  c #2A1714",
"a  c #231A14",
"s  c #2B1A15",
"d  c #211E1B",
"f  c #2E1B18",
"g  c #341A1A",
"h  c #331D1A",
"j  c #1F2217",
"k  c #24240E",
"l  c #222116",
"z  c #2D2317",
"x  c #292716",
"c  c #2A2914",
"v  c #23211B",
"b  c #2C2C1B",
"n  c #322F15",
"m  c #34221C",
"M  c #3B231E",
"N  c #312A1B",
"B  c #39291F",
"V  c #3B341D",
"C  c #221E20",
"Z  c #1F2222",
"A  c #252423",
"S  c #2A2422",
"D  c #2A2A22",
"F  c #2B2A2A",
"G  c #3C2522",
"H  c #392624",
"J  c #3C2A24",
"K  c #2F3125",
"L  c #3C3121",
"P  c #34352C",
"I  c #2F2F30",
"U  c #333331",
"Y  c #3A3A33",
"T  c #37373A",
"R  c #4C0100",
"E  c #460E00",
"W  c #510100",
"Q  c #570C00",
"!  c #4E1E08",
"~  c #531400",
"^  c #541F00",
"/  c #551E05",
"(  c #411E17",
")  c #492203",
"_  c #572302",
"`  c #5D2300",
"'  c #5C2B0E",
"]  c #5D3B09",
"[  c #462619",
"{  c #592D15",
"}  c #532A1C",
"|  c #652A02",
" . c #6C2B01",
".. c #6F390D",
"X. c #622E11",
"o. c #663215",
"O. c #6E3412",
"+. c #6E3A1E",
"@. c #703618",
"#. c #723A1D",
"$. c #412723",
"%. c #432925",
"&. c #4B2B23",
"*. c #442C28",
"=. c #4A2E29",
"-. c #443224",
";. c #463927",
":. c #4C332A",
">. c #593426",
",. c #573429",
"<. c #433D3C",
"1. c #573932",
"2. c #673E2F",
"3. c #733F23",
"4. c #474428",
"5. c #404036",
"6. c #4D4131",
"7. c #494B31",
"8. c #41403C",
"9. c #5B4B35",
"0. c #53523B",
"q. c #794226",
"w. c #764428",
"e. c #66563A",
"r. c #63593B",
"t. c #414242",
"y. c #4E4E43",
"u. c #4B484A",
"i. c #5B5A4E",
"p. c #575851",
"a. c #665B45",
"s. c #735C47",
"d. c #696748",
"f. c #7C6A52",
"g. c #7E7657",
"h. c #7D7368",
"j. c #6C6D73",
"k. c #814E35",
"l. c #895235",
"z. c #84533C",
"x. c #8A5A45",
"c. c #8F614C",
"v. c #836C56",
"b. c #836E58",
"n. c #966D5B",
"m. c #8A735D",
"M. c #8C7A68",
"N. c #9A7866",
"B. c #A17764",
"V. c #A47965",
"C. c #A77F6C",
"Z. c #988471",
"A. c #AB8472",
"S. c #A78F78",
"D. c #AA8979",
"F. c #B38C7A",
"G. c #A6927F",
"H. c #A9927B",
"J. c #B9927F",
"K. c #AE9D8C",
"L. c #B59281",
"P. c #B89A88",
"I. c #B6A28E",
"U. c #B3A392",
"Y. c #BBA895",
"T. c #BFB2A6",
"R. c #C39F8D",
"E. c #C3A08E",
"W. c #C4A391",
"Q. c #C9A592",
"!. c #C3AB95",
"~. c #C3AE9B",
"^. c #CBAA99",
"/. c #D1AD98",
"(. c #C4B19D",
"). c #D3B29E",
"_. c #C5B2A0",
"`. c #CCB6A5",
"'. c #CBB9A7",
"]. c #CDBBA9",
"[. c #D3B6A5",
"{. c #D4B8A5",
"}. c #D7B9A6",
"|. c #D4BDAC",
" X c #D9BFB0",
".X c #D6C1AD",
"XX c #D4C2B2",
"oX c #DEC3B2",
"OX c #E2C2AB",
"+X c #E1C8B7",
"@X c #E4CEBE",
"#X c #E8CDBB",
"$X c #E4D0BE",
"%X c #ECD3BE",
"&X c #DFCDC3",
"*X c #E5D2C2",
"=X c #ECD5C2",
"-X c #E5D8CB",
";X c #EDDACA",
":X c #F1D5C0",
">X c #F2D9C6",
",X c #F2DDCB",
"<X c #F7E1CF",
"1X c #F5E4D2",
"2X c #F6E7D9",
"3X c #FCEFE2",
"4X c #FEF1E3",
"5X c #FFF4E9",
/* pixels */
"    ; @   .   .   @ X X .   . . X X % X % $ $ % X * $ . . X . o .     +   . . ; ",
"    X . X     .   X @ . @ * . * % * , * * = = * @ % X X . . . .   j *     +   l ",
"y.8     + 5   . X . . X @ X X = * = , = 6 = = = , a i X . . . %   y.P   $       ",
"<.;   @     + ; 7   O % X = 6 = i p p f m g f f i a z a O z <     5 >   ; . @ ; ",
"    +   F t.  > $ o > * = i i i f g $.$.=.*.&.=.G g f a , a 0   %     X .     @ ",
">   >   U t.  >   V n . 6 i f G %.&.E Q X.' / ( &.%.h p i = * $ . @ @     3 5   ",
"X +   X     @ o   < > = i f %.&.^ 3.B.L.W.E.V.z.@./ &.M p r = * @ . @ @   T j.  ",
".   5 @   . * l = O = p g %.} #.L.*X2X,X=X#XOXOX[.C.| &.h f p = > . . X   X Z > ",
"    5 +       x , = a g *.} l..X3X-XU.v.e.e.f.S.oX2XI.O.&.M M m % $ = . o > -   ",
"- +   : t > X . * i f $.} c.@X2XK.w             -.U.<X).O.&.M ;.z o t < .     X ",
"; @   P Y   * = % s G =.q.oX1Xb.  2 A v i 8 8 d     M.<XE.| =.-.;.  ,     X c < ",
"      C 3   > o s e.=.| Q.<Xm.  F 8             a A   Z.%XA._ %.B i o V <   , X ",
"  X 5   i.5.    a.g.e B.<XI.  A .                 = A   Y.%Xz.( m a   r.4.  X . ",
"  > @   P 0 6 o s.9.W {.$X) o >                     >   6.=XR.R *.s = , ,   @ @ ",
"      *     6 i -.[ x.%XI.  v                         0 o _.*X3.$.h r X . X .   ",
"X   X < @ * , i %.R J.,Xe.  8                         5   h.;XN.E G i = > X X 6 ",
"  X .   . > = a =.W {.*Xq 1 $                         @   L *XI.R J f * @   5 F ",
"X   . . $ 5 i s *.~ +X.X  9 .                         . +   XX[.~ G m , % . > > ",
"@ @ @   % , a g G #.=X_.  0                             5   (.}.X.G h = , * .   ",
"  . * X X % 6 m h q.,XY.  0                             5   Q.).X.%.s = > @   . ",
"; l . > @ % i m $.@.#X(.  0                             5   !./.` G s , % X . . ",
"; -   . * * i f *.Q OX X  9 .                         . o   {.Q.W H i = @ *   . ",
"    X X . . 6 p J W [.;Xy o *                         X   V *XP.e J i = < >   X ",
"  X @ * * 5 = p H _ P.3Xv.  0                         5   M.,XN.e J & x , . @ X ",
". 5 -   ; K a i H } n.4XT.  Z                         0   ~.@XO.&.u r.z   X . X ",
"  @   4.b > 6 , f %...&X1X]   >                     >   9.%XP.R g <.g.  5   . . ",
"$     b 8   @ i m H ' D.5X`.  9 $                 = 4   !.#Xz.[ & r.0.  = . .   ",
"@ . X   O @ O * ;.J %.+.].4XS.  4 0 =         $ 8 2   S.>XF._ $.f -.# * < .   . ",
"      7     * o N 4.h ,.k.+X4XH.    2 0 d 0 j 2     H.,X^.w.=.h p O O * . c j   ",
"8.  5   P A   , o L $.%.>.x.@X4X'.s.        o   e.Q.%XQ.3.>.M f = = 8 .   k <   ",
"u.7 l   U A   @ % , s h &.2.l.[.4X1X'.G.M.M.L.`.;X:XL. .} g f = $ d b   ;     . ",
"  5   .   X X $ @   , i g 1.1.| A.oX>X>X%X=X;X,X|.B.o.=.$.g r a > *   . < . . X ",
"*   . X +   X   < b O = a g :.=.W  .x.C.F.F.A.n.w.{ =.M g = = i * . 3 d ;   . X ",
"  5.l   c k     8 d.6 . i i M :.:.&._ ~ ~ ~ ~ ! &.*.M f = = . $ . X 8 5   + .   ",
"  i.D   j <   > @ . . * , = i s M $.$.$.G $.%.G m g i r = , N   * l . $ X n v j ",
"@     @         ; o 6 > > > i a r r r p f f p p i i r * . 8 l o     @     k K D ",
"  5 .   X   X <   $ I 0 > , 8 <.= U r # a s r r = = 6 5 , .     j $   0 0       ",
"    - + X   j 0.  X 5 A X @ 8 S 5 z u.F . 6 = > > % >   ; > 0 0 7.j   p.8.  > + ",
". . . . + . + l .   * >   . @     . Y d a @ @ $ X @   P S   5 5 > X   v 8 .     ",
"        .       . > .   . . o ;   8 k   5 . . . $ O . F Y P         +     .   . "
};
