/* XPM */
static char *result[] = {
/* columns rows colors chars-per-pixel */
"32 32 5 1 ",
"  c #141B1B",
". c #A16240",
"X c #E67C44",
"o c #FFAD5D",
"O c None",
/* pixels */
"O oooooooooooooooooooooooooooo O",
"O oooooooooooooooooooooooooooo O",
".XooooooooooooooooooooooooooooX.",
"XXooooooooooooooooooooooooooooXX",
"XXooooooooooooooooooooooooooooXX",
"XooooooooooooooooooooooooooooooX",
"ooooooXooooooooooooooooooXoooooo",
"oooooXooooooooooooooooooooXooooo",
"oooooooooooooooooooooooooooooooo",
"oooooooooooooooooooooooooooooooo",
"ooooooooooXooooooooooXoooooooooo",
"oooooooooooXooooooooXooooooooooo",
"oooooooooooooooooooooooooooooooo",
"oooooooooooooooooooooooooooooooo",
"oooooooooooooooooooooooooooooooo",
"oooooooooooooooooooooooooooooooo",
"oooooooooooooooooooooooooooooooo",
"oooooooooooooooooooooooooooooooo",
"oooooooooooooooooooooooooooooooo",
"oooooooooooooooooooooooooooooooo",
"oooooooooooooooooooooooooooooooo",
"oooooooooooooooooooooooooooooooo",
"ooooooXoooooooooooooooXooooooooo",
"oooooXoooooooooooooooXoooooooooo",
"oooooooooooooooooooooooooooooooo",
"oooooooooooooooooooooooooooooooo",
"ooooooooooXoooooooooooooooXooooo",
"oooooooooooXoooooooooooooooXoooo",
"oooooooooooooooooooooooooooooooo",
"oooooooooooooooooooooooooooooooo",
" XooooooooooooooooooooooooooooX ",
"O XooooooooooooooooooooooooooX O"
};
