/* XPM */
static char *result[] = {
/* columns rows colors chars-per-pixel */
"32 32 139 2 ",
"   c black",
".  c #000016",
"X  c #000018",
"o  c #001610",
"O  c #001813",
"+  c #001A18",
"@  c #260000",
"#  c #002111",
"$  c #34201D",
"%  c #733500",
"&  c #491425",
"*  c #551E26",
"=  c #691C2C",
"-  c #472320",
";  c #542124",
":  c #5E3A23",
">  c #602127",
",  c #662428",
"<  c #6D232A",
"1  c #7C252E",
"2  c #7D282E",
"3  c #74272C",
"4  c #7F440A",
"5  c #004B5A",
"6  c #31555D",
"7  c #755D53",
"8  c #920D39",
"9  c #841E32",
"0  c #8B1B35",
"q  c #8C2433",
"w  c #8C2832",
"e  c #942336",
"r  c #9B2637",
"t  c #922A34",
"y  c #9A2B36",
"u  c #9B2339",
"i  c #A4273B",
"p  c #A32B39",
"a  c #B1273E",
"s  c #B1293F",
"d  c #AC303C",
"f  c #B1313D",
"g  c #AD5600",
"h  c #B45500",
"j  c #B15A00",
"k  c #814F2E",
"l  c #A66437",
"z  c #B16D3E",
"x  c #C56800",
"c  c #D16E00",
"v  c #C9701F",
"b  c #E17A00",
"n  c #C5483E",
"m  c #E04F3F",
"M  c #E35D3F",
"N  c #D47622",
"B  c #D67C34",
"V  c #E36B37",
"C  c #E2633D",
"Z  c #E36B39",
"A  c #E96A3C",
"S  c #E37137",
"D  c #E5743B",
"F  c #E6793E",
"G  c #B11A42",
"H  c #B32540",
"J  c #BE2A43",
"K  c #C52D46",
"L  c #D62D4B",
"P  c #DC2D4D",
"I  c #CE3148",
"U  c #D13C46",
"Y  c #DE3942",
"T  c #D33549",
"R  c #DD364C",
"E  c #DA3A4B",
"W  c #E3374E",
"Q  c #E43B4D",
"!  c #E93B4F",
"~  c #E73750",
"^  c #EA3651",
"/  c #EC3B50",
"(  c #F13B52",
")  c #B4744C",
"_  c #A1745D",
"`  c #CF4044",
"'  c #DA4743",
"]  c #DA4348",
"[  c #DF5344",
"{  c #DE5842",
"}  c #E3454B",
"|  c #EB474D",
" . c #EB4C4C",
".. c #E44C49",
"X. c #F04A4E",
"o. c #E45445",
"O. c #E45A41",
"+. c #E95D44",
"@. c #E65048",
"#. c #EC5449",
"$. c #F1574B",
"%. c #CC7A40",
"&. c #EB6142",
"*. c #E67740",
"=. c #E77B42",
"-. c #E87C42",
";. c #EE8A3A",
":. c #A9806C",
">. c #A48576",
",. c #D08043",
"<. c #DB854A",
"1. c #C8835A",
"2. c #DF8950",
"3. c #E28540",
"4. c #EA8245",
"5. c #EA8844",
"6. c #EC8549",
"7. c #ED8B4B",
"8. c #F28A4C",
"9. c #EF914F",
"0. c #F49147",
"q. c #F1924F",
"w. c #FC974C",
"e. c #E38D50",
"r. c #EA8F50",
"t. c #F48B50",
"y. c #EF9250",
"u. c #F19451",
"i. c #FB9A54",
"p. c #F89959",
"a. c #FFA263",
"s. c #739CA7",
"d. c #82969C",
"f. c #B3B6B6",
"g. c #AEBFC4",
"h. c #9FC4CE",
"j. c #A9C5CD",
"k. c #C1DFE8",
"l. c None",
/* pixels */
"l.l.l.l.l.l.l.l.l.l.l.l.l.l.l.l.l.l.l.l.l.l.l.l.l.l.l.l.l.l.l.l.",
"l.l.l.l.l.l.l.l.l.l.l.l.l.l.l.l.l.l.l.l.l.l.l.l.l.l.l.l.l.l.l.l.",
"l.l.l.l.l.l.l.l.l.l.l.l.l.l.l.l.l.l.l.l.l.l.l.l.l.l.l.l.l.l.l.l.",
"l.l.l.l.l.l.l.l.l.l.l.p E l.l.l.l.l.l.l.l.l.l.l.l.l.l.l.l.l.l.l.",
"l.l.l.l.l.l.l.l.l.l.l.w p l.l.l.l.l.l.l.l.l.l.l.l.l.l.l.l.l.l.l.",
"l.l.l.l.l.l.l.l.l.l.l.l.l.> Q p l.l.l.l.l.l.l.l.l.l.l.l.l.l.l.l.",
"l.l.l.l.l.l.l.l.l.l.l.l.< W ~ / y l.l.3 w l.l.l.l.l.l.l.l.l.l.l.",
"l.l.l.l.l.l.l.l.l.l.l.l.E / { #.K l.* / d l.l.l.l.l.l.l.l.l.l.l.",
"l.l.l.l.l.l.l.t 9 l.l.t W R D o.L 1 U $.p l.l.l.l.l.l.l.l.l.l.l.",
"l.l.l.l.l.l.O / f l.l.d ! C Z Z  .8 o.D } u l.l.l.l.l.l.l.l.l.l.",
"l.l.l.l.l.l.p Q ! a # u &.D 7.-.M U Z D A | e l.l.l.l.l.l.l.l.l.",
"l.l.l.l.l.l.J #.C  .T ` A 4.y.u.*.V 6.u.F C | t l.l.l.l.l.l.l.l.",
"l.l.l.l.l.l.K  .S V @.O.D t.7.u.6.7.9.*.9.F O.^ 9 l.l.l.l.l.l.l.",
"l.l.l.l.l.l.0 @.D V S V 6.y.y.y.y.u.4.Y 4.u.D #.w l.t l.l.l.l.l.",
"l.l.l.l.l.l.l.t &.-.-.Z 9.9.y.y.9.y.4.o.6.u.4.C T q ( , l.l.l.l.",
"l.l.l.l.l.l.l.0 +.4.y.7.y.9.q.y.u.y.7.4.y.y.F +.G n X.s l.l.l.l.",
"l.l.l.l.l.l.3 Q C -.y.y.7.y.y.% B u.y.y.9.7.V C ' D  .a l.l.l.l.",
"l.l.l.l.l.2 ^ @.S 7.u.7.u.p.v s._ 9.y.7.q.7.Z *.8.-.| = l.l.l.l.",
"l.l.l.l.o W ! Z -.u.q.k z a.x j.:.w.2.: <.8.7.u.7.&.a l.l.l.l.l.",
"l.l.l.l.; R } Z 6.u.<..   h 3.5 ) b @ X l i.y.6.A ` l.l.l.l.l.l.",
"l.l.l.l.f ~ O.F u.9.y.4 6 g.1.B N f.d.  2.u.r.-.O.! f l.l.l.l.l.",
"l.l.l.l.d ~ O.-.u.u.u.;.>.k.7 i.j h.f.c p.r.u.D [ W Q + l.l.l.l.",
"l.l.l.l.p ~ M -.u.4.u.u.5.g ,.y.e.g N i.7.6.u.6.Z W T l.l.l.l.l.",
"l.l.l.l.$ ~ o.Z 7.7.-.4.-.t.7.6.6.8.6.4.4.7.u.D C ! w l.l.l.l.l.",
"l.l.l.l.l.y / A F u.7.7.u.7.6.6.4.7.9.6.7.u.4.C ! T l.l.l.l.l.l.",
"l.l.l.l.l.l.t  .V F 7.7.y.y.y.y.u.y.y.u.6.3.C ! / t l.l.l.l.l.l.",
"l.l.l.l.l.l.l.u | &.V D =.9.7.7.9.6.-.D Z M / / y l.l.l.l.l.l.l.",
"l.l.l.l.l.l.l.l.q I #.+.A V V S V S V +. .R p $ l.l.l.l.l.l.l.l.",
"l.l.l.l.l.l.l.l.l.l.9 L ]  .| | | | ] R i - l.l.l.l.l.l.l.l.l.l.",
"l.l.l.l.l.l.l.l.l.l.l.l.& i r r y i q l.l.l.l.l.l.l.l.l.l.l.l.l.",
"l.l.l.l.l.l.l.l.l.l.l.l.l.l.l.l.l.l.l.l.l.l.l.l.l.l.l.l.l.l.l.l.",
"l.l.l.l.l.l.l.l.l.l.l.l.l.l.l.l.l.l.l.l.l.l.l.l.l.l.l.l.l.l.l.l."
};
