/* XPM */
static char *_474108aca7b4990c1e487dcc1f3e5d8tO2pYLk21giZQzyE[] = {
/* columns rows colors chars-per-pixel */
"37 33 7 1 ",
"  c None",
". c #141B1B",
"X c #E46D3A",
"o c #8F3E56",
"O c #E0394C",
"+ c #C8966B",
"@ c #FCE2CA",
/* pixels */
"           ....       .....          ",
"         ..XXXO..   ..OXXXX.         ",
"        .OXXXXOXX. .XXOXXXXO.        ",
"       .XXOXXXOXXX.XXXOXXXOXX.       ",
"      .XXXXOXXXOXX.XXOXXXOXXXX.      ",
"      .OXXXXOO.... ....OOXXXXO.      ",
"     .XXOOOOO.         .OOOOOXX.     ",
"     .XXXXXXXO.       .OXXXXXXX.     ",
"    .OOXXXXXOOO..   ..OOOXXXXXOO.    ",
"   .OOOOOOOOOOOOO...OOOOOOOOOOOOO.   ",
"   .OOOOOOOOOOOOOOOOOOOOOOOOOOOOO.   ",
"  .oOOOOOXXOOOOXXOOOXXOOOOOOOOOOOo.  ",
"  .oOOOOOXXOOOoXXXXXXXoOOOOOOOOOOo.  ",
"  .oOOOOOOOOOOoXXXXXXXoOOOOOOOOOOo.  ",
"  .oOOOOOOOOOOOooXXXooOOOOOOOOOOOo.  ",
"  .oOOOOOOOOOO+@@ooo@@+OOOOOOOOOOo.  ",
"  .oOOOOOOOOO+@@X...X@@+OOOOOOOOOo.  ",
"  .ooOOOOOOO++@@X...X@@++OOOOOOOoo.  ",
"  .ooOOOOOOO++@@@XXX@@@++OOOOOOOoo.  ",
" .o.ooOOOOOOO++@@@@@@@++OOOOOOOoo.o. ",
" .oooooOOOOOOO+++@@@+++OOOOOOOooooo. ",
".oooooooOOOOOOOO+++++OOOOOOOOooooooo.",
".oooo.oooOOOOOOOOOOOOOOOOOOOooo.oooo.",
".ooooo.oooOOOOOOoooooOOOOOOooo.ooooo.",
".oooo. .ooooOOOoOOOOOoOOOoooo. .oooo.",
".oooo.  .oooooOOOOOOOOOooooo.  .oooo.",
" .oX.  .ooo.ooooooooooooo.ooo.  .Xo. ",
" .X.  .ooooo.ooooooooooo.ooooo.  .X. ",
"  .   .oooooo...ooooo...oooooo.   .  ",
"       .oooo.   .....   .oooo.       ",
"       .oooo.            .ooo.       ",
"      .oooo.             .oooo.      ",
"      .XoX.               .XoX.      "
};
