/* XPM */
static char *e3fa0ed7cf5b4820d973bcb6d9773e823Mt7yjG7Crn36twy[] = {
/* columns rows colors chars-per-pixel */
"36 36 170 2 ",
"   c None",
".  c #040D13",
"X  c #061014",
"o  c #0C1415",
"O  c #0E1518",
"+  c #131A1A",
"@  c #191F1D",
"#  c #1B201E",
"$  c #1A1F24",
"%  c #1C2223",
"&  c #262B25",
"*  c #2A2D25",
"=  c #24272A",
"-  c #262C2C",
";  c #2B2F2C",
":  c #232726",
">  c #32332C",
",  c #393B2D",
"<  c #2A2C31",
"1  c #2C3233",
"2  c #313135",
"3  c #3B393B",
"4  c #353C3F",
"5  c #423F33",
"6  c #434232",
"7  c #4B4A36",
"8  c #49453F",
"9  c #4C4736",
"0  c #504933",
"q  c #514E39",
"w  c #54523B",
"e  c #5A543E",
"r  c #64593C",
"t  c #393F40",
"y  c #433E46",
"u  c #3C4344",
"i  c #454145",
"p  c #414748",
"a  c #4A4548",
"s  c #424848",
"d  c #4E484A",
"f  c #4D4D45",
"g  c #534D4C",
"h  c #5A514C",
"j  c #5B5544",
"k  c #4D5354",
"l  c #525858",
"z  c #525655",
"x  c #625640",
"c  c #635E41",
"v  c #605751",
"b  c #645A52",
"n  c #6B5D51",
"m  c #676143",
"M  c #696144",
"N  c #6F6847",
"B  c #6C634C",
"V  c #706847",
"C  c #75684D",
"Z  c #6E6254",
"A  c #67665B",
"S  c #766A55",
"D  c #726758",
"F  c #7A6E5C",
"G  c #7D715C",
"H  c #595F61",
"J  c #5C6163",
"K  c #6C6E69",
"L  c #6D7272",
"P  c #847951",
"I  c #87795E",
"U  c #8A7A58",
"Y  c #8A7A56",
"T  c #917E5E",
"R  c #847E67",
"E  c #8B7D61",
"W  c #8C8057",
"Q  c #938659",
"!  c #9A8C5C",
"~  c #A88E5B",
"^  c #A58A5F",
"/  c #A0915F",
"(  c #B4965B",
")  c #998967",
"_  c #9F8E69",
"`  c #89867A",
"'  c #9B9B7B",
"]  c #949478",
"[  c #A18E65",
"{  c #A8966C",
"}  c #A69665",
"|  c #B79965",
" . c #B49B6B",
".. c #B39563",
"X. c #A39676",
"o. c #B29F76",
"O. c #9DA07E",
"+. c #B5A16C",
"@. c #BDA96D",
"#. c #B9A66B",
"$. c #B0A77D",
"%. c #BAA574",
"&. c #C09E5F",
"*. c #C4A266",
"=. c #C1AC6F",
"-. c #C7A769",
";. c #D0AE6E",
":. c #C5AE73",
">. c #CAB373",
",. c #CEB57C",
"<. c #D4B873",
"1. c #D1B779",
"2. c #DBBA7E",
"3. c #D4B775",
"4. c #EABE6E",
"5. c #E3BC73",
"6. c #E2BD7C",
"7. c #DCC37B",
"8. c #EEC373",
"9. c #E7C178",
"0. c #EBC37A",
"q. c #F1C572",
"w. c #F5C975",
"e. c #F8CA74",
"r. c #F7D07D",
"t. c #FAD37E",
"y. c #7B8082",
"u. c #868784",
"i. c #858888",
"p. c #8F9496",
"a. c #969A9C",
"s. c #B0A48E",
"d. c #A6AB90",
"f. c #AAAB95",
"g. c #A6A8A9",
"h. c #ABB2A0",
"j. c #BBBBB5",
"k. c #CAB48C",
"l. c #C9BEA8",
"z. c #E1C383",
"x. c #E5CB81",
"c. c #EFCE80",
"v. c #E8C78C",
"b. c #EDD285",
"n. c #EFD388",
"m. c #F0D586",
"M. c #FCD681",
"N. c #FEDA84",
"B. c #F2D588",
"V. c #F6D989",
"C. c #FDDE8A",
"Z. c #EBCA90",
"A. c #FFE28D",
"S. c #FFE791",
"D. c #FFEA92",
"F. c #FFF297",
"G. c #D6CAAA",
"H. c #C8C4BA",
"J. c #D8CCB6",
"K. c #E1CAA1",
"L. c #E9D2AB",
"P. c #E5D5B7",
"I. c #F2DCB4",
"U. c #CECECA",
"Y. c #DAD7CF",
"T. c #D1D1D0",
"R. c #E0D5C2",
"E. c #E1E0D3",
"W. c #F1E7D5",
"Q. c #F4EAD9",
/* pixels */
"                                                                        ",
"                                                                        ",
"                                                                        ",
"                                                                        ",
"                                                                        ",
"                                                                        ",
"                                                                        ",
"                                + + + + + + + + + + +                   ",
"                              6 q w w q q q q q q q 7                   ",
"                        + o @ c } :.=.@.@.@.@.@.=.@.! 6 o               ",
"                      % % @ : M :.B.C.A.A.A.A.A.S.A.>.N ,               ",
"                    + = 2 2 3 h I %.n.D.D.D.S.S.D.D.b.@.Q w #           ",
"                  & > 8 h g d a g G :.B.C.C.C.C.C.C.A.C.1.M #           ",
"                , V W [ _ F g y i v E +.7.M.N.t.t.t.N.N.<.M # .         ",
"              # w +.b.V.x.[ v a d d g S | 8.w.8.8.8.w.w.-.r # .         ",
"            6 c Q 7.D.D.C.,.) D g i i h U ..-.:.>.:.3.9.*.r # X         ",
"          # c #.x.V.A.A.A.V.z.{ b a a g h Z R ' O.' $.,. .e # X         ",
"        . @ M 7.D.S.A.A.A.D.A.1.T n h a 3 i A ] d.h.f.X.U q #           ",
"          @ m 7.D.S.A.A.A.A.A.c.;.^ Z i < > B o.G.E.j.K 5 *             ",
"        * 6 P 7.S.A.A.A.A.C.C.M.w.*.C 3 $ & S k.P.Y.g.k +               ",
"      * M / >.m.A.A.A.A.A.N.r.t.e.&.x = O - ` R.H.u.J 4                 ",
"    X * P x.A.A.A.A.A.A.C.t.q.w.q.( 0 + X - i.T.g.s +                   ",
"    X * Y V.F.A.A.A.A.N.t.w.q.q.5.~ 9 + o % l y.L 1                     ",
"    X * P x.A.A.A.A.C.r.q.q.8.0.2.[ 9 + O @ % - ;                       ",
"      * m ! >.V.A.N.t.w.q.4.5.Z.L.s.f + O + O X                         ",
"        * 6 P 7.A.t.w.q.8.5.2.L.Q.j.z + O + +                           ",
"          + e } >.5.8.8.0.v.K.J.H.p.p + O +                             ",
"            > 7 C  .6.6.z.I.W.j.L u = + +                               ",
"              + 5 U  . .o.l.U.a.t o O +                                 ",
"                ; 7 e e j A K H                                         ",
"                  # # # # % % %                                         ",
"                    X X X .                                             ",
"                                                                        ",
"                                                                        ",
"                                                                        ",
"                                                                        "
};
