/* XPM */
static char *_c4a2e4151a34a009cd3fb6a016a12e1gtu0mmTnQkh1YWDx[] = {
/* columns rows colors chars-per-pixel */
"32 32 95 2 ",
"   c None",
".  c #0B1717",
"X  c #0C1918",
"o  c #101617",
"O  c #111718",
"+  c #121919",
"@  c #1D191B",
"#  c #3A1D22",
"$  c #1E2323",
"%  c #1F2A27",
"&  c #1F2D28",
"*  c #212526",
"=  c #232827",
"-  c #242E2A",
";  c #2B2D2E",
":  c #26302C",
">  c #2E3030",
",  c #2D3833",
"<  c #343535",
"1  c #313834",
"2  c #373638",
"3  c #383739",
"4  c #343F38",
"5  c #3D3B3D",
"6  c #411E23",
"7  c #4B2B30",
"8  c #4C3333",
"9  c #403D3F",
"0  c #52353A",
"q  c #34423A",
"w  c #433F41",
"e  c #4E3F42",
"r  c #3F4E44",
"t  c #444243",
"y  c #4B4547",
"u  c #444C45",
"i  c #484A47",
"p  c #4D4749",
"a  c #4E484A",
"s  c #504B4C",
"d  c #435146",
"f  c #4B554C",
"g  c #475A4C",
"h  c #4B5B4E",
"j  c #52514F",
"k  c #4E5E50",
"l  c #535250",
"z  c #585356",
"x  c #535C53",
"c  c #595E56",
"v  c #694248",
"b  c #6B4A4C",
"n  c #526455",
"m  c #586057",
"M  c #576558",
"N  c #5B675B",
"B  c #5F6D5E",
"V  c #5E6F5F",
"C  c #5B695B",
"Z  c #5E705F",
"A  c #766359",
"S  c #5E7160",
"D  c #5F7160",
"F  c #5F7260",
"G  c #5F7261",
"H  c #6A6063",
"J  c #606E60",
"K  c #6A696C",
"L  c #6D6B6E",
"P  c #607261",
"I  c #607361",
"U  c #617361",
"Y  c #617262",
"T  c #617362",
"R  c #607462",
"E  c #617462",
"W  c #627462",
"Q  c #627563",
"!  c #667568",
"~  c #6F7573",
"^  c #8F2834",
"/  c #8D2A36",
"(  c #8E2B37",
")  c #9F3844",
"_  c #9F3A45",
"`  c #9E3F46",
"'  c #B95764",
"]  c #857269",
"[  c #CD6E76",
"{  c #7A8C7F",
"}  c #858A7F",
"|  c #A7B0B3",
" . c #ACBBB9",
".. c #C3A9B0",
"X. c #CDB8BA",
/* pixels */
"                            + + + +                             ",
"                            * * * *                             ",
"                        + * 2 9 9 2 $ +                         ",
"                        + * 9 s s t ; *                         ",
"                        + * 5 s s p t 2 * +                     ",
"                        $ ; w a a y t 2 $ +                     ",
"                    + $ 2 t y a a w ; $ + + + +                 ",
"                    $ ; w s j l l i 1 - - : : -                 ",
"        + + + + O $ 2 w y j m C C M x h h k k u - o O +         ",
"        - : - - - 1 i l l x C T T T T T T E E n 4 - - -         ",
"    + - u k h h h x M C M C V F F F T T T T T B n h k u - +     ",
"    + - f J T E E T T F F F F F F F T F F F F T T T J f - +     ",
"    + = t c V E E T T F F F F F F F F F F F F T E V c t = +     ",
"    + * 2 i x C C C Z T T F F F F F F F F V C C C x i < $ +     ",
"        $ > i l l x C E T F F F F F F T T C x l l i ; $ + +     ",
"        + $ < e v b j k M M M M M M M C C c s p p w ; $ + +     ",
"        + + $ 7 ) ) 8 , i l l j j j j j j s a p p y t 2 $ +     ",
"        - % + # ^ ^ # $ 5 a p p p p p p p p a a a a s 9 * +     ",
"    + - d r % @ # # @ $ 5 a p p p p p p p a a a a a s 9 * +     ",
"    + : k M q - & - - 1 t s j l l j a a a a a a a a s 9 * +     ",
"    + : k F n g g g h h a s c C C m j p a a a a a a s 9 * +     ",
"    + - r c A ] } { ! c s j C E E C l p p a a a a p t 2 * +     ",
"        - 8 ` [ X. .~ a a j C E E C l p p a a a s t ; $         ",
"        . # ^ ' ..| K y p j m C C m j p a a a y t 2 $ +         ",
"            6 0 H L z p p a j l l j a a a a a t ; $             ",
"            X $ < 9 y a a a a a p p a a a s s 5 * +             ",
"                $ ; w a a a a a a a a a a s s 5 * +             ",
"                + * 9 s a y w t y a a y w t p 9 * +             ",
"                + * 9 s s w ; ; t s s t ; ; t w * +             ",
"                + * 2 t p 5 * $ 2 9 9 3 - ; 3 2 * +             ",
"                    $ ; t 9 * + $ * * ; 3 3 ; *                 ",
"                    + * 9 w * + + + + * w w * +                 "
};
