/* XPM */
static char *_a29f3d638f842c89a72e919c509bb64QbmcfRQLiEdHjFkG[] = {
/* columns rows colors chars-per-pixel */
"36 36 250 2 ",
"   c None",
".  c #0C1213",
"X  c #0D1314",
"o  c #0D1415",
"O  c #0E1516",
"+  c #101617",
"@  c #101717",
"#  c #101718",
"$  c #101818",
"%  c #111818",
"&  c #111819",
"*  c #111919",
"=  c #121919",
"-  c #131A1A",
";  c #131B1B",
":  c #141B1B",
">  c #161D1D",
",  c #171D1D",
"<  c #161E1D",
"1  c #171F1E",
"2  c #181F1E",
"3  c #191E1F",
"4  c #191F1F",
"5  c #19201F",
"6  c #192120",
"7  c #1A2120",
"8  c #1A2221",
"9  c #1B2221",
"0  c #1B2321",
"q  c #1C2121",
"w  c #1C2122",
"e  c #1D2223",
"r  c #1E2223",
"t  c #1D2523",
"y  c #1F2424",
"u  c #1E2724",
"i  c #1F2725",
"p  c #1F2826",
"a  c #212526",
"s  c #222626",
"d  c #202826",
"f  c #202926",
"g  c #212927",
"h  c #222B28",
"j  c #232D29",
"k  c #242E2A",
"l  c #262F2B",
"z  c #28292B",
"x  c #292B2C",
"c  c #2B2D2D",
"v  c #2D2E2F",
"b  c #26302C",
"n  c #27312D",
"m  c #28322D",
"M  c #2A342F",
"N  c #2D3230",
"B  c #2B3630",
"V  c #2E3933",
"C  c #2F3A34",
"Z  c #2F3B34",
"A  c #303132",
"S  c #303232",
"D  c #313333",
"F  c #353335",
"G  c #323634",
"H  c #353436",
"J  c #363537",
"K  c #373537",
"L  c #373637",
"P  c #343A37",
"I  c #313C36",
"U  c #313D36",
"Y  c #323E37",
"T  c #333E37",
"R  c #363C38",
"E  c #393839",
"W  c #3A3E3B",
"Q  c #3D3B3C",
"!  c #3E3B3D",
"~  c #423C3F",
"^  c #354039",
"/  c #36403A",
"(  c #37423B",
")  c #37433B",
"_  c #37443B",
"`  c #37433C",
"'  c #38453D",
"]  c #39453D",
"[  c #39463D",
"{  c #39473D",
"}  c #3A453E",
"|  c #3A473E",
" . c #423D40",
".. c #413E40",
"X. c #423E40",
"o. c #3C4940",
"O. c #3F4A42",
"+. c #3E4C42",
"@. c #3F4D43",
"#. c #424041",
"$. c #454745",
"%. c #484345",
"&. c #494346",
"*. c #4B4447",
"=. c #4A4547",
"-. c #494646",
";. c #484747",
":. c #494747",
">. c #404D43",
",. c #404E44",
"<. c #414F44",
"1. c #4D4548",
"2. c #4D4649",
"3. c #4D4749",
"4. c #4E4749",
"5. c #4E474A",
"6. c #4F474A",
"7. c #4B4B4A",
"8. c #4D4849",
"9. c #4D484A",
"0. c #4E484A",
"q. c #4F484B",
"w. c #4F494B",
"e. c #4E4A4A",
"r. c #4F4A4B",
"t. c #4E4B4B",
"y. c #4F4B4C",
"u. c #50494B",
"i. c #504C4C",
"p. c #504D4C",
"a. c #504C4D",
"s. c #504D4D",
"d. c #524D4E",
"f. c #514E4E",
"g. c #514F4E",
"h. c #524F4E",
"j. c #425046",
"k. c #435146",
"l. c #465048",
"z. c #465148",
"x. c #455348",
"c. c #465449",
"v. c #465549",
"b. c #4A544B",
"n. c #4E504D",
"m. c #4A584C",
"M. c #4A594D",
"N. c #4B5A4D",
"B. c #4F594F",
"V. c #4C5C4F",
"C. c #51504E",
"Z. c #52504F",
"A. c #52514F",
"S. c #4E5E51",
"D. c #4F5E51",
"F. c #535250",
"G. c #525350",
"H. c #535350",
"J. c #525550",
"K. c #535551",
"L. c #525751",
"P. c #545551",
"I. c #545651",
"U. c #545652",
"Y. c #555652",
"T. c #535852",
"R. c #535952",
"E. c #545A53",
"W. c #545B53",
"Q. c #505F52",
"!. c #525E53",
"~. c #525F53",
"^. c #565A54",
"/. c #565B54",
"(. c #575A55",
"). c #565C55",
"_. c #575D55",
"`. c #575F56",
"'. c #595A56",
"]. c #595F57",
"[. c #506053",
"{. c #516253",
"}. c #536254",
"|. c #526354",
" X c #576157",
".X c #556356",
"XX c #566256",
"oX c #536455",
"OX c #576658",
"+X c #596058",
"@X c #596158",
"#X c #596258",
"$X c #596359",
"%X c #5B6259",
"&X c #5A6359",
"*X c #5B6359",
"=X c #5A6459",
"-X c #5A655A",
";X c #5A665A",
":X c #5B675B",
">X c #5C655B",
",X c #5C675C",
"<X c #5E675D",
"1X c #576859",
"2X c #58695A",
"3X c #59695A",
"4X c #5A685B",
"5X c #5B695B",
"6X c #596A5A",
"7X c #596A5B",
"8X c #596B5B",
"9X c #5A6B5B",
"0X c #5C685B",
"qX c #5E685D",
"wX c #5C6A5C",
"eX c #5C6B5D",
"rX c #5B6D5C",
"tX c #5C6C5D",
"yX c #5D6C5D",
"uX c #5C6D5D",
"iX c #5D6D5E",
"pX c #5E6D5E",
"aX c #5D6E5E",
"sX c #5D6F5E",
"dX c #5D6F5F",
"fX c #5E6E5E",
"gX c #5E6E5F",
"hX c #5E6F5F",
"jX c #5E705F",
"kX c #5E7060",
"lX c #5F7060",
"zX c #5E7160",
"xX c #5F7160",
"cX c #5F7260",
"vX c #5F7261",
"bX c #606F60",
"nX c #607161",
"mX c #607261",
"MX c #617261",
"NX c #607361",
"BX c #617362",
"VX c #607461",
"CX c #607462",
"ZX c #617462",
"AX c #627563",
"SX c #627663",
"DX c #637664",
"FX c #647765",
"GX c #657866",
"HX c #657966",
/* pixels */
"                                - - - -                                 ",
"                                f f f f                                 ",
"                            < M O.k.k.O.M <                             ",
"                            < C [.MXMX[.C <                             ",
"                          . : V oXHXHXoXV : .                           ",
"                          - 5 T |.AXAX|.T 5 -                           ",
"                          n T k.1XMXMX1Xk.T n                           ",
"          - - - -       8 ) D.6XhXMXMXhX6XD.) 8       - - - -           ",
"        j n m m l     O 8 ) XXbXlXlXlXMXDX6X[ 8 O     l m m n j         ",
"      8 T v.V.N.+.l # O 4 G n.*XhXMXMXMXDX6X[ 5 X + l +.N.V.v.T 8       ",
"    + 8 [ 6XFXMXD.T i 8 s F :.Y.=XwXwXhXMX6X>.n t f T D.MXFX6X[ 8 +     ",
"    + 8 [ rXHXAX6XN.O.W E ~ :.i.H.Y.Y.^.0XhX[.x.,.,.N.6XAXHXrX[ 8 +     ",
"    + 8 ) OXMXlXlXjX6XR.t.t.y.i.i.i.i.H.*XjXlXhXhXhXhXlXlXMXOX) 8 +     ",
"    # 8 P R.wXlXAXAXMX,X]._._._.^.^.^._.6XlXMXAXAXAXAXAXlXwXR.P 8 #     ",
"    - 4 A :.^.wXlXlXhXhXhXhXhXhXhXhXhXhXjXlXlXlXlXlXlXlXwX^.:.A 4 -     ",
"      4 z J $.W.*X*X=XhXMXAXAXAXAXAXAXMXMXlXMXlXhX=X*X*XW.$.J z 4       ",
"        4 i A :.Z.i.K.=XlXMXlXlXlXlXlXlXlXlXMXlX=XK.i.Z.:.A i 4         ",
"          : s J X.&.i.^.=X=X=X=X=X=X=X=X=X=X=X=X^.i.&.X.J s :           ",
"          - < r v X.t.Z.H.H.H.H.H.H.H.H.H.H.H.H.Z.t.X.v r < -           ",
"          : < i N X.t.t.t.t.4.4.t.t.t.t.4.4.t.t.t.t.#.N i < :           ",
"          - j [ x.7.t.4.4.4.4.4.t.4.4.4.4.4.4.4.4.t.7.x.[ j -           ",
"        < t T Q.*XH.t.4.t.t.4.4.t.t.t.4.4.4.t.t.4.t.H.*XQ.T t <         ",
"      8 B [ x.W.^.i.t.4.4.t.t.t.t.t.4.4.4.t.t.t.4.t.i.^.W.x.[ B 8       ",
"    + 8 _ |.XXZ.t.t.t.t.t.4.t.t.t.t.4.4.4.t.t.t.t.t.t.t.Z.XX|._ 8 +     ",
"    + 8 [ hX,Xi.4.4.t.t.4.4.t.t.t.t.4.4.t.t.t.t.t.t.4.4.i.,XhX[ 8 +     ",
"    + 8 [ 6X>Xi.4.4.t.4.4.4.t.4.t.4.4.4.4.t.t.t.t.t.4.4.i.>X6X[ 8 +     ",
"      8 T v.B.K.Z.y.t.t.t.t.4.4.t.t.4.4.4.4.t.t.4.4.y.i.K.B.v.T 8       ",
"        p n [ Q.*XZ.t.4.4.t.4.4.t.t.4.4.4.4.t.t.4.4.Z.].Q.[ n p         ",
"        8 h ) Q.*XH.4.4.t.t.t.t.t.t.t.t.4.4.4.t.4.t.H.*XQ.) h 8         ",
"      8 C +.b.K.Y.i.4.t.t.t.t.t.t.t.4.4.4.4.4.t.t.t.i.Y.K.b.+.C 8       ",
"    + 8 ` XX*XZ.4.4.4.4.t.t.4.t.4.4.4.4.4.4.4.4.t.t.t.t.Z.*XXX` 8 +     ",
"    # 8 R W.'.i.4.4.4.4.t.t.4.4.4.4.4.4.t.t.4.4.t.t.t.4.i.'.W.R 8 #     ",
"    - 4 A :.t.t.4.t.t.4.t.t.t.4.t.t.t.4.4.4.t.t.t.t.t.4.t.t.:.A 4 -     ",
"      4 x F J J Q &.t.t.t.t.4.4.t.t.t.t.4.4.t.t.t.t.&.Q J J F x 4       ",
"        r r r r c X.t.t.4.4.4.4.t.t.t.4.4.4.4.4.t.4.X.c r r r r         ",
"          - - - s Q t.u.4.4.4.4.t.t.t.4.4.4.4.4.u.4.Q s - - -           "
};
