/* XPM */
static char *ac5eab25cd894029eb20f782ada0f33bZRNqRDtBfpWVx4ms[] = {
/* columns rows colors chars-per-pixel */
"36 38 129 2 ",
"   c None",
".  c #0F1717",
"X  c #0D1A19",
"o  c #101617",
"O  c #101718",
"+  c #131A1A",
"@  c #191F1F",
"#  c #23181B",
"$  c #2D1A1D",
"%  c #10221F",
"&  c #3A1F23",
"*  c #1C2222",
"=  c #222526",
"-  c #212927",
";  c #242728",
":  c #242B29",
">  c #2A2C2D",
",  c #27312C",
"<  c #2A332F",
"1  c #2D2F30",
"2  c #2E3131",
"3  c #323334",
"4  c #333D37",
"5  c #373738",
"6  c #383738",
"7  c #343E39",
"8  c #3C3B3C",
"9  c #421F24",
"0  c #4A1F25",
"q  c #511C23",
"w  c #522127",
"e  c #5F2A2F",
"r  c #4F2B30",
"t  c #4A3438",
"y  c #403D3E",
"u  c #643337",
"i  c #37423B",
"p  c #3B473E",
"a  c #35483D",
"s  c #423F40",
"d  c #503C40",
"f  c #374B40",
"g  c #3A4B40",
"h  c #454243",
"j  c #494446",
"k  c #424C44",
"l  c #4D4749",
"z  c #4E494A",
"x  c #514C4D",
"c  c #5E4E4A",
"v  c #435146",
"b  c #445449",
"n  c #49564B",
"m  c #4C5C4F",
"M  c #52514F",
"N  c #4E5E51",
"B  c #545451",
"V  c #525D52",
"C  c #565B55",
"Z  c #575D55",
"A  c #555A53",
"S  c #5B5759",
"D  c #624E48",
"F  c #704047",
"G  c #77464B",
"H  c #60575A",
"J  c #526053",
"K  c #556057",
"L  c #566457",
"P  c #556556",
"I  c #586057",
"U  c #596057",
"Y  c #566358",
"T  c #566758",
"R  c #596158",
"E  c #596359",
"W  c #596358",
"Q  c #5A6359",
"!  c #586559",
"~  c #5A6459",
"^  c #5A655A",
"/  c #5A6359",
"(  c #576B5B",
")  c #5B695B",
"_  c #596A5A",
"`  c #5C685B",
"'  c #5C695C",
"]  c #5D6B5D",
"[  c #5B6D5D",
"{  c #5D6C5D",
"}  c #5C6C5E",
"|  c #5E6F5F",
" . c #5C6A5C",
".. c #5E705F",
"X. c #606A5F",
"o. c #626C5D",
"O. c #5F7060",
"+. c #5F7160",
"@. c #5F7260",
"#. c #5F7261",
"$. c #5F7160",
"%. c #686568",
"&. c #607261",
"*. c #607361",
"=. c #617362",
"-. c #617262",
";. c #617462",
":. c #627563",
">. c #627663",
",. c #617463",
"<. c #76777A",
"1. c #8E2B37",
"2. c #8A2935",
"3. c #9B2D3A",
"4. c #9D3643",
"5. c #AA3A46",
"6. c #B03945",
"7. c #915856",
"8. c #A6545F",
"9. c #A77573",
"0. c #D76D79",
"q. c #76847B",
"w. c #828A8A",
"e. c #A79F99",
"r. c #B2989E",
"t. c #97A79F",
"y. c #A4A9AD",
"u. c #D8BABF",
"i. c #BCC9CA",
/* pixels */
"                                O O O O                                 ",
"                                * * * *                                 ",
"                            O ; 3 6 6 3 : @                             ",
"                          @ * > h z z s > @                             ",
"                        @ : 3 8 l x x h > +                             ",
"                      O @ 1 h l l x x h > @ O                           ",
"                    . o + = 3 y j z z j 6 > =                           ",
"                  + + + @ @ * 3 h z z l j s 1 @ O                       ",
"                  , < < < , < 7 z B B B x l 6 > *                       ",
"          O o O : k m N m m m J ! ` _ W B z h 8 3 * O O O O O           ",
"        - : - : 4 N -.:.-.-.-.-.O.O.-.| Z M M x h , - : : : : -         ",
"      * 4 v b v m _ -.:.-.-.-.-.-.O.-.| _ W W W V n v v v b v 4 *       ",
"    o * i L O.....O.O.O.O.O.O.O.O.O.O.O.O.O.O.O...........O.L i * o     ",
"    O * 7 A X.-.:.:.O.O.O.O.O.O.O.O.O.O.O.-.O.-.-.:.:.:.-.X.A 4 * O     ",
"    O @ 2 j A ' O...| O.O.O.O.O.O.O.O.O.O.O.O.O.O.| ..O.' A j 2 @ O     ",
"    O @ = 3 h B U U W ' O.-.-.-.-.-.-.-.O.-.:.-.| Y K W B h 3 : @       ",
"    + + @ * 3 j x x B W ..O.O.O.O.O.O.O.O.O.O.| W B x x j 2 * @         ",
"    O @ * : 5 h l l z A W ! ! ! ! ! ! ! ! W N n c G F d 3 * O           ",
"    O @ > 8 h l z l z x M M M M M M M M B z 7 < u 5.4.r * + O           ",
"    O @ 3 j x z z z z z l l l l l l l l x j 1 @ w 3.1.9 @ * : :         ",
"    O @ 3 j x z z z z l l l l l l l l l x j 1 + $ 0 9 # * 7 v 7 *       ",
"    O @ 3 j x z z z z z z z z z x x x x x j 5 - * * * * , n T p * o     ",
"    O @ 3 j x z z z z z z l z M C U U C M z k k g a a f b ( [ p * o     ",
"    O @ 2 h z z z z z z z l z B _ O.O._ B x B _ O.,.,.o.X.o.L i * o     ",
"      @ : 3 8 j x z z z z l z A | :.:.| A x M W q.t.e.9.7.D p 2 *       ",
"        @ * 1 h z z z z z l z B ' -.-.' B z j B w.i.u.0.6.e = %         ",
"          O ; 5 y j z z z l z M Z ! ! Z B z j x <.y.r.8.2.q +           ",
"            @ * > s z z z z z z x M M x z z l z S %.H t & $             ",
"              O = 8 z x z z z z l l z z z z z z j y 3 * X               ",
"              O = 8 z x x z z z l z z z z z z l 8 > *                   ",
"              + = 8 l j h j z z z l h h j z x l 5 * O                   ",
"              + ; y j 6 1 8 l x x h 5 3 y l x z 5 * O                   ",
"              + ; 8 s > = 3 h l j 8 = * 5 l z j 5 * O                   ",
"                = > 3 3 2 3 3 3 3 > @ * 6 j s 3 > *                     ",
"                  @ = 5 s 3 * @ @ @ + * 8 j 5 * @                       ",
"                    * 8 j 5 @ . O O O * 3 h 3 @                         ",
"                                O + + @                                 ",
"                                + + + +                                 "
};
