/* XPM */
static char *result[] = {
/* columns rows colors chars-per-pixel */
"32 32 81 1 ",
"  c #0E1516",
". c #001917",
"X c #0B1918",
"o c #101617",
"O c #101718",
"+ c #131A1A",
"@ c #1C1C1C",
"# c #3A1F22",
"$ c #152323",
"% c #1D2223",
"& c #1D2B29",
"* c #212525",
"= c #222826",
"- c #242D2A",
"; c #2C2E2E",
": c #26302C",
"> c #2D2E30",
", c #2D3331",
"< c #353436",
"1 c #313835",
"2 c #343F38",
"3 c #3F3B3E",
"4 c #431C22",
"5 c #45262B",
"6 c #492A2E",
"7 c #4C2B30",
"8 c #413337",
"9 c #413D3E",
"0 c #53363A",
"q c #344039",
"w c #423E40",
"e c #4D3E41",
"r c #454444",
"t c #4A4446",
"y c #434C45",
"u c #484A47",
"i c #4D4749",
"p c #4F494B",
"a c #514C4D",
"s c #415045",
"d c #4B544C",
"f c #465B4C",
"g c #4C5C4E",
"h c #52514E",
"j c #4E5350",
"k c #4D5E51",
"l c #545451",
"z c #555C54",
"x c #585D56",
"c c #5B5B5A",
"v c #694248",
"b c #526254",
"n c #596256",
"m c #5A665A",
"M c #5C6A5D",
"N c #5E705F",
"B c #5F6F60",
"V c #5F7260",
"C c #6C6164",
"Z c #6E6E6F",
"A c #617462",
"S c #687C6C",
"D c #8F2B37",
"F c #932E3A",
"G c #B22436",
"H c #9F3743",
"J c #9E3844",
"K c #84645B",
"L c #B95865",
"P c #847269",
"I c #C6404B",
"U c #C86D75",
"Y c #748279",
"T c #798D7F",
"R c #7B8F81",
"E c #858B80",
"W c #ABB9B8",
"Q c #C2AAB0",
"! c #CAB8BA",
"~ c #AFC3BD",
"^ c None",
/* pixels */
"^^^^^^^^^^^^^^+oo+^^^^^^^^^^^^^^",
"^^^^^^^^^^^^^^:::-^^^^^^^^^^^^^^",
"^^^^^^^^^^^^+-ykky-+^^^^^^^^^^^^",
"^^^^^^^^^^^^+:gAAg-+^^^^^^^^^^^^",
"^^^^^^^^^^^^o-kAAk- ^^^^^^^^^^^^",
"^^^^^^^^^^^^=2bAAb2-^^^^^^^^^^^^",
"^^^^ooOO^^o-sbMVVNbs-+^^OOOo^^^^",
"^^^^-::-^^o-dBVVVAAk-o^^-::-^^^^",
"^^o-skks-  =rnMAAAAg-  -ykbs-o^^",
"^^+:bAAbq-=;9anmmMVb2-=2bAAk:o^^",
"^^+-kAAMbdwwiaahhzMMbgdbNAAk-+^^",
"^^+-dMNAVNzhhhhhazmVAAAANNNd-+^^",
"^^+*rxMAVNMmmmmmmmMAVAAAAMxr=+^^",
"^^+*<uzMMMVVAAVVAAVVVBMmMzu<*+^^",
"^^^^*;uhhxMAVVVVVVNAAMxhhu;*^^^^",
"^^^^O%<39rzMMmMmMmmmmzr33<%+^^^^",
"^^^^++%%%>ulljlllhdjlu>%*%++^^^^",
"^^^^+@%%%-<evveq3tvve<-%*%@+^^^^",
"^^^^X%<3w<&7JJ7$$7JH7&<93<@X^^^^",
"^^^^-1ullu:5FD#..#DF5-ulli1-^^^^",
"^^+-ybmMMzr85#@ O@##9uzMMmbs-+^^",
"^^+:kSVVAMxu:&:::-&,uxMVVVAk:+^^",
"^^O:kAVVVBMngffgkffgbMBVVVAb:O^^",
"^^+-sknMBVBSTEPKKPERSVVVMmzs-+^^",
"^^^^-,uzMAMT~!UIIU!~RMBAzu,-^^^^",
"^^^^%;wanmnYWQLGGLQWYnnnh9;%^^^^",
"^^+*<wtpalacZC0540CZchhapiw<*+^^",
"^^+=wappiiai9;$ X%;9iipiipaw*+^^",
"^^+=waapipaw;*$++@%,wapipaaw*+^^",
"^^+*<w3rtiw<%++++++%<wiir33<*+^^",
"^^^^**%>rr,%@+X@+++@%;rr;***^^^^",
"^^^^+OX*9w*X++@+$+++X*w9* ++^^^^"
};
