/* XPM */
static char *result[] = {
/* columns rows colors chars-per-pixel */
"32 32 64 1 ",
"  c #1C2820",
". c #1E3229",
"X c #2D3E23",
"o c #243C2D",
"O c #293F29",
"+ c #2F4220",
"@ c #26402D",
"# c #28412D",
"$ c #304222",
"% c #364B23",
"& c #2A4732",
"* c #2C4C33",
"= c #3C5F33",
"- c #355B3A",
"; c #385D39",
": c #3B6037",
"> c #425C27",
", c #4D6C2A",
"< c #506F2B",
"1 c #50712C",
"2 c #55792D",
"3 c #426433",
"4 c #40693B",
"5 c #4B7135",
"6 c #48743D",
"7 c #547830",
"8 c #325742",
"9 c #3C664F",
"0 c #3A6350",
"q c #3D6B52",
"w c #406C46",
"e c #436D4C",
"r c #477541",
"t c #45714D",
"y c #48734E",
"u c #477D4D",
"i c #497D4C",
"p c #507A45",
"a c #447552",
"s c #5C8534",
"d c #5D8936",
"f c #5E913F",
"g c #669337",
"h c #689637",
"j c #6F9E36",
"k c #63953D",
"l c #67993D",
"z c #6B9B39",
"x c #709F37",
"c c #74A334",
"v c #77A935",
"b c #79AA35",
"n c #71A339",
"m c #4C824A",
"M c #528546",
"N c #568945",
"B c #5A8D43",
"V c #518548",
"C c #548A4B",
"Z c #5A8F48",
"A c #5E9140",
"S c #629642",
"D c #669941",
"F c None",
/* pixels */
"FFFFFFFX%FF+%FFFFF+%FFFF% FFFFFF",
"FFFFF>,sh<,sg1=-,,dg,,<2z7,%FFFF",
"FFFo5jbnDbbzlczSvbzkcbbcfnbl:FFF",
"FFO6ncccccccczDccccccccchkcvj3FF",
"FF4lccccccccccjncccccccccjcccS*F",
"F&MxccjzcccccccccjjcccccccccjSr.",
"F;SjcckzcccccccccSzccccccccjkhZ#",
"F-Zzccxccccccccccjccccccccccclm#",
"F;DccccccccccccccvcccccccccccxZo",
"F;DcccccccccccccccccccccccccccZ@",
"F-SccccccccccccccccccccccccccjN@",
"F-Chvcccccccccccccccccccccccckm#",
"F-SccccccccccccccccccccccccccjNo",
"F;NlccccccccccxcccccccccjcccckN#",
"F;CkcccccccccjkccccccccchkcccjN@",
"F;DxjccccccccczcccccccccczccccZ@",
"F:zcccczcccccccccczcccccccccjnSo",
"F:SccckzccccccccckjccccccccnkhZ#",
"F-mzcccccccccccccccccccccccnjki#",
"F-Zccccccccccccccccccccccccccjm#",
"F-Clccccccccccccccccccccccccckm@",
"F-SccccccccccccccccccccccccccjZo",
"F;ScccccccccccccccccccccccccccBo",
"F;DvccccccccccccccccccccccccccB@",
"FwlzhccccccccccccccccccccccjkcB8",
"FiSMhcccccccvhkccccccccclkccllfq",
"FaiNhnccjjccjclccccxccxxchnjjNi9",
"FaiVBkclfzcclfcxzclfxcckAccBNmmq",
"FeNuimANmflfBulBVfMifllNigBiuiu0",
"FeBBAVVMmMVNNiMmVfMViVMimNNNmfyF",
"FFeufSAAfkffkBkffkNkABkBkABlNpFF",
"FFFFetee9teeeeeeeeeeeeteeeeyeFFF"
};
