/* XPM */
static char *result[] = {
/* columns rows colors chars-per-pixel */
"40 40 215 2 ",
"   c #006600440092",
".  c #0AAB01A101DE",
"X  c #089D0881077B",
"o  c #0285030F0A5E",
"O  c #034F08350ADE",
"+  c #0A910A430D3F",
"@  c #141A0435033B",
"#  c #1CFD018700EB",
"$  c #15900B3208BA",
"%  c #1B6C11280DF9",
"&  c #00000036149B",
"*  c #030F0B541124",
"=  c #0C920CFF11E9",
"-  c #006B038E1B4B",
";  c #06E90BBC1B32",
":  c #122B12A41453",
">  c #1B2913CC13B9",
",  c #14B815381AA1",
"<  c #172B182C1AC9",
"1  c #1AED1AF41D05",
"2  c #27960773037C",
"3  c #327D00000000",
"4  c #31A40CC3046D",
"5  c #3B590B3107E9",
"6  c #34DD120E0966",
"7  c #3B6014050A85",
"8  c #2931192E150F",
"9  c #20E21CAC1E09",
"0  c #0985180F236F",
"q  c #13AF1B252011",
"w  c #1C1F1D3C22AD",
"e  c #22D81F8120D8",
"r  c #0FA934F63D74",
"t  c #212F21222549",
"y  c #230B244729CA",
"u  c #278827552C21",
"i  c #2B19298B2D0D",
"p  c #24252A65358A",
"a  c #2B6A2D013294",
"s  c #32F62F4533A3",
"d  c #2E9B306D36AD",
"f  c #3B0E341633D0",
"g  c #336D359B3CCD",
"h  c #370038C73D48",
"j  c #45E200000000",
"k  c #531D01420000",
"l  c #49771AD10B9D",
"z  c #58DE15C602CD",
"x  c #450E1DA1124D",
"c  c #4C7E1E101117",
"v  c #620A00000000",
"b  c #73EE18200000",
"n  c #494F24DD1967",
"m  c #542023F91499",
"M  c #590D256F1586",
"N  c #591028871960",
"B  c #5BDB2ADC1A3E",
"V  c #742226B10A20",
"C  c #78A7333F0B85",
"Z  c #610F27541187",
"A  c #628A2D541BFB",
"S  c #674030DD1E36",
"D  c #7A68363612D3",
"F  c #4D9F2DA3208E",
"G  c #5A2835C625D8",
"H  c #4B7E3EA13D44",
"J  c #69EF3693260A",
"K  c #63C239E32AFD",
"L  c #70A6359221AE",
"P  c #733B3A312414",
"I  c #7A453CDA25DE",
"U  c #43B63FF532A8",
"Y  c #6C95425E2ECE",
"T  c #7CE441132AF8",
"R  c #6AA9454A389D",
"E  c #7A5748693736",
"W  c #351F3B9C41AA",
"Q  c #3B163D004227",
"!  c #40513E7B449F",
"~  c #3E49412C4953",
"^  c #439345764B64",
"/  c #481648254BAE",
"(  c #55EA48CB4810",
")  c #470149BC5248",
"_  c #4B834CDE50F7",
"`  c #4EF45039501B",
"'  c #55BF560E5881",
"]  c #5482560359B4",
"[  c #7304530149EA",
"{  c #738A5BA75547",
"}  c #3FC4590D6184",
"|  c #58375ACD6155",
" . c #5C8C6182673E",
".. c #5FF7616C641C",
"X. c #63DD66126B5C",
"o. c #6BA66DC471A8",
"O. c #76D976FF79B5",
"+. c #87C23D671625",
"@. c #8BFD379332B6",
"#. c #82CB442E2C65",
"$. c #8C6847332D9B",
"%. c #8301495A3381",
"&. c #8D644C9B344E",
"*. c #83174BF53845",
"=. c #91914E8733F9",
"-. c #856452003CA6",
";. c #88C3521D3CFF",
":. c #99C759433D97",
">. c #A4EA5B953F01",
",. c #880357D74414",
"<. c #9DA55DCC42C9",
"1. c #92C75CBE4A6E",
"2. c #8CAD5AF5541A",
"3. c #A3C85ED141CB",
"4. c #B5C9563D445C",
"5. c #97FA63AC4AC9",
"6. c #88D564EE58A5",
"7. c #98076884572C",
"8. c #AC66672F49D1",
"9. c #AC9067F74885",
"0. c #B7A26E564D31",
"q. c #A3D86D495335",
"w. c #AC0E6CE9560C",
"e. c #AFA06BFF5663",
"r. c #BA91756455A0",
"t. c #881F6BF9640D",
"y. c #960C79CA6FB5",
"u. c #8383799A777D",
"i. c #AA987A3D66A6",
"p. c #B68C7B5A64D2",
"a. c #A6D57F4B752F",
"s. c #C1AE77DB5677",
"d. c #C3C17DEA5D77",
"f. c #CDCD69C56875",
"g. c #D31972A56C7F",
"h. c #AC2D82036EAD",
"j. c #B600821F69E9",
"k. c #BB8A83146C3C",
"l. c #B50A8A5E776D",
"z. c #C79580A85FD3",
"x. c #C4FA85F26754",
"c. c #CB8284326358",
"v. c #C28F85EA6A73",
"b. c #CC4689BE6A1E",
"n. c #D4B18CB26BAA",
"m. c #DE74903C6C47",
"M. c #CD7F8E1774D4",
"N. c #DAEA8DFD76C4",
"B. c #CCBD95547AB0",
"V. c #DC5D9538745C",
"C. c #D2D095C97BC0",
"Z. c #D68794F4789B",
"A. c #DB1C9BA37CDF",
"S. c #E0E5922E6E8B",
"D. c #E19C9D3E7C26",
"F. c #7F24808C83D5",
"G. c #83FB863189B2",
"H. c #84CE86BA8A0C",
"J. c #8B258CB98E7E",
"K. c #91ED881A8764",
"L. c #8A588CAB906D",
"P. c #934F95189848",
"I. c #9AD89C359E9F",
"U. c #B2D0998D921B",
"Y. c #B06DA0F59D46",
"T. c #9C119E59A1C8",
"R. c #9F1BA144A4C9",
"E. c #A154A326A568",
"W. c #A78FA615A6A5",
"Q. c #A6B1A930AC56",
"!. c #AB35AC78AEBF",
"~. c #B3AAAD07AAD2",
"^. c #AFE8B034AFFA",
"/. c #AD5AAEE6B1B1",
"(. c #AEA0B1F7B36B",
"). c #B4C3B52BB57D",
"_. c #B89BB80DB7F2",
"`. c #B755B86EB7DA",
"'. c #B623B74CB96D",
"]. c #B7C2B902B926",
"[. c #B93EB9E8B9F6",
"{. c #CBB5978D840A",
"}. c #D5B69E028284",
"|. c #DBE99F05831B",
" X c #E1E58BFC8B2E",
".X c #E67F9F4A8042",
"XX c #DBECA28A85F5",
"oX c #D96BA3EF89F9",
"OX c #DBA3A6D28CE4",
"+X c #C7FCA4909232",
"@X c #D708A6449525",
"#X c #E6ADA53B86C3",
"$X c #E4CFAA8D8D04",
"%X c #E26AAE6D93A4",
"&X c #E2BDA9A597EF",
"*X c #E91DAD85927B",
"=X c #E5FBB3A698F9",
"-X c #E55EB52F9C0B",
";X c #EC8FB5959B62",
":X c #F2D9B51E9B80",
">X c #C599B7F0B4B5",
",X c #E71CBB65A451",
"<X c #EBBBBCA3A442",
"1X c #E79DBFE5ABEF",
"2X c #F179BFF4A661",
"3X c #DF0BC3D1B6F8",
"4X c #E6CBC0BEADFE",
"5X c #EC63C34FAD90",
"6X c #ED1AC62CB24C",
"7X c #EF6CCD5BBC77",
"8X c #F238CB90B8FB",
"9X c #B5A4BC95C04E",
"0X c #E85FCDEAC1C2",
"qX c #F49DD588C662",
"wX c #F974E0F3D4A1",
/* pixels */
").).)./.)./.(.(.^.)./.^./.(./././././././././.!.!.!./.Q./.Q./.(.(.(.(.(.(.(.).).",
").).)././.).^.).^.).!.^.(.(./.).)./././.!.(.(.(.(.!.Q./.Q././.(.(.(.(.(.(.(.(.^.",
"(.).(.).).(.(.).!.^./././.(./.L.H.o.' ] ] o.J.J.P.!./.Q.Q.!././.(.(.!.(.(.(.(.).",
").(.).^.).).^.^.)./././.(.T...                u    .!./.(./././.(.(.(.(.(.(.(.).",
"(.).).).^.^.).^.^.!.)./.O.o < w < y s = : < w i 1   _ H.P.Q.(.(.(.(.(.(.(.(.(.).",
").).)./.(.).).^.^.(.).L.  < i : < = e 1 < = +   t :     o O.)./.^.^.(.).(.(.(.).",
"'.).).).).^.^.^.^.).O.y u Q     % s u t 9 $ % 9 1   + >   X./.(.).).^.).).).).(.",
"'.'.).).^.).).^.'.E.0   y < . i ; -   0             w + +   J.'.^.^.).).(.).).).",
"'.).).).).).~.^.).R.y a w 9   & R 7.t.( 7 -.-.B   = i X X   I.'.~.).).).).).).).",
"'.'.).).).^.^.^.^.(.O.  9 o   i.%X5X4XOXb.n.m.s.P @       , I.).).).).).).).).`.",
"_._.'.).).).).).(.).G.  : $ e.#X8XqX6X<X$Xn.V.d.$.n @ O   h W.).).).).).).`.).`.",
"_.).).).).).~.).).).o.  & 1.m.A.5X7X1X%XXXn.c.9.I S x o   ! !.).~.).).).).).`.`.",
"_._.'.).).).).)./._.O.  - ;.V.XX4X6X4XOXXXA.z.9.#.P x *   ' ).).).).).).'.).].].",
"_._.'.'._.).).).)._.P.  * Y m.*X8X7X5X%XOX$Xn.s.>.S 4 O   ` ^.).).).).).'.].].].",
"_.].].]._._.).).)._.I.. o 3.S.@X3X7X6X%X5X-Xd.q.;.K J n   ' ).).).).).).'.).].].",
"_.].].].).).).).)._.W.& G n.7.' U H 6.B.OXp.3 O 8 > K E   O.'.)._.).).).).'.].].",
"].].`._._.).).).).).).r 5.k.7.U.G   3 oXA.j   6 Y B n ;.  J._.'.).).)._.)._._.].",
"].]._._._._.).).`.`.].} q.B.1. .` { w.;XC.  ( u.h f B &.8 Q._.)._.).).).)._._._.",
"[.[._._._._.)._.`.).>XO.q.$Xr.{.2.q.#X#XN.2 K p.[ % M #.U u.~._._._.).)._._._._.",
"[.[._._._._._._.`.).h.C.v.;X5X=X}.1X*XD.N.j P 0.w.<.I %.;.v K.[.)._.)._.)._.)._.",
"].`.].`._.'._.)._.^.i.,X{.*X8XwXwXqX.X:X.XD N c.S.b.=.%.*.b K.[.)._.).).).]._._.",
"`.`.].`.'._.'.).`.(.M.&Xk.$X<X7XqX<XS.8XOX+.5 <.n.9.T %.K k Y.[.).'.).).).]._.'.",
"`.`.`.`.].'.].].].(.U. X{.|.:X6X0X2Xp.p.,.3 6 c r.:.P E c ( ).'.)._._.).)._.)._.",
").`.`.`._._.]._.).'.~.#X&XZ.;X6XqXqX+X5.J o 4 M &.=.@.I v y.[.)._._.).).).).'.].",
").`.`.`._._._.`.).).(.@X&Xv.$X5X1Xl.7.p.M.E # n S #.T { t.~.[._._._.).).).).'.'.",
").`.`.]._._.`.`.).'.'.(.W.l.D.;Xp.1.e.4.V z 7 . B #.D W.9X[.).`._.).).).)._._._.",
"^.].].]._.`.`.).'.'.'.).9XY.c..XM.e.g. X Xf.k x J C 6.].[.].`.).).).).'.).)._._.",
"^.].].].`.`.).).(.).).Q.T.T.p.d.n.}.g.f.f.@.l M J V { R.!.W.`.[.'.).).(._._._._.",
"(._.`._._.).).).'.'.T.| i a *.0.r.s.8.[ U # n N S B m   g / F.].'.'.'.).).).].'.",
"^._.`.`.'.).).'.R.O.d * X   q.5.d.|.;X1X}.0.&.A m M J q : +    ./.].'.'.).].].].",
"^.].)._.`.).'.H.w   t u i   p.M.+.[ a.p.<.Y F 2 6 L P o < w w   W E.'./.].].].'.",
"(.].`.`.`.`.H.  g ) w y s   q.;XB.G     o     2 m P B   + : o 1   ^ Q.'.'.].'.'.",
"/._.].`.[.E.d   ~ W w * >   <.$X4XA.h.{   X 7 m B A l   o   + & >    ./.'.'.'.'.",
"/._.]._.R.| W o , a t   $   <.D.,X%XXX}.j.l # 7 m x l @   : , =   1 - X.'.'.'.'.",
"(.[.`.).O.p Q     , y   t o <.N.-X,XXXoXk.Z B S B l 2   : w , +   t a | T.(.[.'.",
"!.[.(./.L.p Q   , o : = y 0 F c.%X%XXXOXB.9.9.r.:.m   + = o   O w w w   | T.'.[.",
"!.].(.P.] ; g y   +   , 1 !   -.A.=XoXb.b.0.d.c.I o o o : : 1 u q   X   ) E.).].",
"Q.`.(._   t y ^ W u w     ^ ^   [ oX%XC.k.b.A.5.  o . w y , :       X O y G.!.9X",
"(.(.T.`   y   = u g | ] d y ) i   Y k.x.r.OXh.  o . < : o         < + <     h O.",
"G.]   y < y 1 + o   : h Q Q / h > & o K j.i.    1 a : O a o   o = a + + . :     "
};
