/* XPM */
static char *result[] = {
/* columns rows colors chars-per-pixel */
"40 40 101 2 ",
"   c #010203",
".  c #0A0707",
"X  c #04050A",
"o  c #09070A",
"O  c #0A090B",
"+  c #1C0301",
"@  c #11070C",
"#  c #130B0C",
"$  c #1D0D0B",
"%  c #1E100E",
"&  c #070F15",
"*  c #0C0C12",
"=  c #1A0F12",
"-  c #131015",
";  c #1D1212",
":  c #1C161A",
">  c #1B1A1D",
",  c #22100E",
"<  c #231515",
"1  c #291715",
"2  c #271815",
"3  c #2B1816",
"4  c #241718",
"5  c #211B1D",
"6  c #2B1C1B",
"7  c #331613",
"8  c #341B17",
"9  c #3A1A11",
"0  c #331E1C",
"q  c #2E211E",
"w  c #36201D",
"e  c #3B221E",
"r  c #211E22",
"t  c #2F1E20",
"y  c #2D2223",
"u  c #372625",
"i  c #3D2623",
"p  c #352528",
"a  c #35292B",
"s  c #3B2B2E",
"d  c #30302F",
"f  c #372F33",
"g  c #313133",
"h  c #3B3737",
"j  c #3D3836",
"k  c #353539",
"l  c #373B3D",
"z  c gray23",
"x  c #42241C",
"c  c #412625",
"v  c #432A26",
"b  c #4B2C26",
"n  c #4C252D",
"m  c #442A2C",
"M  c #4B2D2A",
"N  c #512F2A",
"B  c #44322F",
"V  c #49332F",
"C  c #52322E",
"Z  c #5A382F",
"A  c #433231",
"S  c #4B3533",
"D  c #4D3638",
"F  c #463F3F",
"G  c #483939",
"H  c #533533",
"J  c #5B3633",
"K  c #553B37",
"L  c #59333D",
"P  c #523C3A",
"I  c #5C3F3B",
"U  c #5C433D",
"Y  c #614037",
"T  c #62443A",
"R  c #694A3E",
"E  c #4D4342",
"W  c #554447",
"Q  c #5A4341",
"!  c #5D4944",
"~  c #544749",
"^  c #584A49",
"/  c #644544",
"(  c #654A45",
")  c #6B4B45",
"_  c #654D49",
"`  c #6C4F49",
"'  c #6D5147",
"]  c #6E524C",
"[  c #73544C",
"{  c #785A4E",
"}  c #6C5650",
"|  c #755651",
" . c #755952",
".. c #7B5B56",
"X. c #775D58",
"o. c #7D5F58",
"O. c #7E615C",
"+. c #675E63",
"@. c #6A5E61",
"#. c #876563",
"$. c None",
/* pixels */
"$.$.$.$.$.$.$.$.$.$.$.$.$.$.$.$.$.$.$.$.$.$.$.$.$.$.$.$.$.$.$.$.$.$.$.$.$.$.$.$.",
"$.$.$.$.$.$.$.$.$.$.$.$.$.$.$.$.$.$.$.$.$.$.$.$.$.$.$.$.$.$.$.$.$.$.$.$.$.$.$.$.",
"$.$.$.$.$.$.$.$.$.$.$.$.$.$.$.$.$.$.$.$.$.$.$.$.$.$.$.$.$.$.$.$.$.$.$.$.$.$.$.$.",
"$.$.$.$.$.$.$.$.$.$.$.$.$.$.$.$.$.$.. X X o * - : $.$.$.$.$.$.$.$.$.$.$.$.$.$.$.",
"$.$.$.$.$.$.$.$.$.$.$.$.$.$.$.$.O     . . O       5 h $.$.$.$.$.$.$.$.$.$.$.$.$.",
"$.$.$.$.$.$.$.$.$.$.$.$.$.$.$.#   X         < q @   X r $.$.$.$.$.$.$.$.$.$.$.$.",
"$.$.$.$.$.$.$.$.$.$.$.$.$.$.$..     3 e v U ' ] ` U ;   h $.$.$.$.$.$.$.$.$.$.$.",
"$.$.$.$.$.$.$.$.$.$.$.$.$.$..     , b Y R [ [ { O...' q * $.$.$.$.$.$.$.$.$.$.$.",
"$.$.$.$.$.$.$.$.$.$.$.$.$.$.  # 8 x b Z T '  ...{ { { U & $.$.$.$.$.$.$.$.$.$.$.",
"$.$.$.$.$.$.$.$.$.$.$.$.$.$.  $ x x M T [ | O.O.X.| [ ( r $.$.$.$.$.$.$.$.$.$.$.",
"$.$.$.$.$.$.$.$.$.$.$.$.$.$.  , 0 2 ; q V ) | K a y A ( g $.$.$.$.$.$.$.$.$.$.$.",
"$.$.$.$.$.$.$.$.$.$.$.$.$.$.O < 3 % 6 6 + C | S 3 B D ! U $.$.$.$.$.$.$.$.$.$.$.",
"$.$.$.$.$.$.$.$.$.$.$.$.$.$.> , 2 % ; s 1 N | J 6 a G ! E $.$.$.$.$.$.$.$.$.$.$.",
"$.$.$.$.$.$.$.$.$.$.$.$.$.W p < e e w i 9 I #.) I K ( ] W $.$.$.$.$.$.$.$.$.$.$.",
"$.$.$.$.$.$.$.$.$.$.$.$.$.D i 6 v N J H 9 / #.| |  . .X._ $.$.$.$.$.$.$.$.$.$.$.",
"$.$.$.$.$.$.$.$.$.$.$.$.$.$.s < e N J b 8 m / / ) |  .] ^ $.$.$.$.$.$.$.$.$.$.$.",
"$.$.$.$.$.$.$.$.$.$.$.$.$.$.f < c b b e , = 6 D ` ) [ ' z $.$.$.$.$.$.$.$.$.$.$.",
"$.$.$.$.$.$.$.$.$.$.$.$.$.$.$.: 3 e 3 o = i m t t K ) G l $.$.$.$.$.$.$.$.$.$.$.",
"$.$.$.$.$.$.$.$.$.$.$.$.$.$.$.> O 3 0 8 7 n L H i S V y $.$.$.$.$.$.$.$.$.$.$.$.",
"$.$.$.$.$.$.$.$.$.$.$.$.$.$.$.k o # < i i 0 m U P u ; k $.$.$.$.$.$.$.$.$.$.$.$.",
"$.$.$.$.$.$.$.$.$.$.$.$.$.$.$.$.-     ; 6 u m j 4   r $.$.$.$.$.$.$.$.$.$.$.$.$.",
"$.$.$.$.$.$.$.$.$.$.$.$.$.$.$.$.t # X X X O     X # ~ $.$.$.$.$.$.$.$.$.$.$.$.$.",
"$.$.$.$.$.$.$.$.$.$.$.$.$.$.$.$.$.w , $ # # = 4 0 Q @.$.$.$.$.$.$.$.$.$.$.$.$.$.",
"$.$.$.$.$.$.$.$.$.$.$.$.$.$.$.$.$.$.p 0 u v v m P +.$.$.$.$.$.$.$.$.$.$.$.$.$.$.",
"$.$.$.$.$.$.$.$.$.$.$.$.$.$.$.$.$.$.$.$.G $.$.~ $.$.$.$.$.$.$.$.$.$.$.$.$.$.$.$.",
"$.$.$.$.$.$.$.$.$.$.$.$.$.$.$.$.$.$.$.$.$.$.$.$.$.$.$.$.$.$.$.$.$.$.$.$.$.$.$.$.",
"$.$.$.$.$.$.$.$.$.$.$.$.$.$.$.$.$.$.$.$.$.$.$.$.$.$.$.$.$.$.$.$.$.$.$.$.$.$.$.$.",
"$.$.$.$.$.$.$.$.$.$.$.$.$.$.$.$.$.$.$.$.$.$.$.$.$.$.$.$.$.$.$.$.$.$.$.$.$.$.$.$.",
"$.$.$.$.$.$.$.$.$.$.$.$.$.$.$.$.$.$.$.$.$.$.$.$.$.$.$.$.$.$.$.$.$.$.$.$.$.$.$.$.",
"$.$.$.$.$.$.$.$.$.$.$.$.$.$.$.$.$.$.$.$.$.$.$.$.$.$.$.$.$.$.$.$.$.$.$.$.$.$.$.$.",
"$.$.$.$.$.$.$.$.$.$.$.$.$.$.$.$.$.$.$.$.$.$.$.$.$.$.$.$.$.$.$.$.$.$.$.$.$.$.$.$.",
"$.$.$.$.$.$.$.$.$.$.$.$.$.$.$.$.$.$.$.$.$.$.$.$.$.$.$.$.$.$.$.$.$.$.$.$.$.$.$.$.",
"$.$.$.$.$.$.$.$.$.$.$.$.$.$.$.$.$.$.$.$.$.$.$.$.$.$.$.$.$.$.$.$.$.$.$.$.$.$.$.$.",
"$.$.$.$.$.$.$.$.$.$.$.$.$.$.$.$.$.$.$.$.$.$.$.$.$.$.$.$.$.$.$.$.$.$.$.$.$.$.$.$.",
"$.$.$.$.$.$.$.$.$.$.$.$.$.$.$.$.$.$.$.$.$.$.$.$.$.$.$.$.$.$.$.$.$.$.$.$.$.$.$.$.",
"$.$.$.$.$.$.$.$.$.$.$.$.$.$.$.$.$.$.$.$.$.$.$.$.$.$.$.$.$.$.$.$.$.$.$.$.$.$.$.$.",
"$.$.$.$.$.$.$.$.$.$.$.$.$.$.$.$.$.$.$.$.$.$.$.$.$.$.$.$.$.$.$.$.$.$.$.$.$.$.$.$.",
"$.$.$.$.$.$.$.$.$.$.$.$.$.$.$.$.$.$.$.$.$.$.$.$.$.$.$.$.$.$.$.$.$.$.$.$.$.$.$.$.",
"$.$.$.$.$.$.$.$.$.$.$.$.$.$.$.$.$.$.$.$.$.$.$.$.$.$.$.$.$.$.$.$.$.$.$.$.$.$.$.$.",
"$.$.$.$.$.$.$.$.$.$.$.$.$.$.$.$.$.$.$.$.$.$.$.$.$.$.$.$.$.$.$.$.$.$.$.$.$.$.$.$."
};
