/* XPM */
static char *result[] = {
/* columns rows colors chars-per-pixel */
"40 40 226 2 ",
"   c #000000",
".  c #02050A",
"X  c #0A070A",
"o  c #1A0101",
"O  c #150905",
"+  c #120D0D",
"@  c #1F110F",
"#  c #080A10",
"$  c #150E12",
"%  c #041018",
"&  c #131214",
"*  c #1A1113",
"=  c #151419",
"-  c #1B1A1C",
";  c #2B0100",
":  c #250905",
">  c #360400",
",  c #31110A",
"<  c #2B1715",
"1  c #2B1916",
"2  c #24181A",
"3  c #2B1C1C",
"4  c #381C16",
"5  c #341E1B",
"6  c #2C201F",
"7  c #3B241A",
"8  c #1A1A21",
"9  c #281D21",
"0  c #2B2223",
"q  c #282327",
"w  c #2C2B2D",
"e  c #342423",
"r  c #3D2523",
"t  c #392B2A",
"y  c #3C312D",
"u  c #272938",
"i  c #29313A",
"p  c #343334",
"a  c #393537",
"s  c #3C3A3D",
"d  c #431600",
"f  c #44261B",
"g  c #441F21",
"h  c #452622",
"j  c #472A24",
"k  c #432C2B",
"l  c #4D2D2A",
"z  c #512E2A",
"x  c #47312C",
"c  c #54362D",
"v  c #472E36",
"b  c #433434",
"n  c #493838",
"m  c #543432",
"M  c #593A38",
"N  c #48403C",
"B  c #5B413A",
"V  c #64443B",
"C  c #3B3C41",
"Z  c #433D42",
"A  c #3D4148",
"S  c #3C4759",
"D  c #454145",
"F  c #4B4445",
"G  c #484749",
"H  c #4C464B",
"J  c #4C494D",
"K  c #5C4742",
"L  c #534A4C",
"P  c #5B4C4C",
"I  c #59504C",
"U  c #4C4A52",
"Y  c #524D54",
"T  c #4F5154",
"R  c #565254",
"E  c #5A5455",
"W  c #5B565A",
"Q  c #56585D",
"!  c #634A44",
"~  c #6A4C45",
"^  c #6E4E4A",
"/  c #6A504A",
"(  c #6D524B",
")  c #76574B",
"_  c #73534D",
"`  c #675453",
"'  c #635A5C",
"]  c #755751",
"[  c #745953",
"{  c #7A5B54",
"}  c #7C5D5A",
"|  c #7E615B",
" . c #475666",
".. c #555E66",
"X. c #5B5B62",
"o. c #675E63",
"O. c #566875",
"+. c #656264",
"@. c #6C6566",
"#. c #64646D",
"$. c #6B666A",
"%. c #666A6C",
"&. c #6B6A6C",
"*. c #776867",
"=. c #736A6D",
"-. c #676C77",
";. c #6C6B72",
":. c #736E72",
">. c #7A6F71",
",. c #6E7177",
"<. c #737274",
"1. c #7C7276",
"2. c #73737B",
"3. c #7C7679",
"4. c #7A7A7A",
"5. c #806059",
"6. c #896B6F",
"7. c #837B7B",
"8. c #84797B",
"9. c #798579",
"0. c #5F7687",
"q. c #757783",
"w. c #797B84",
"e. c #7B7E8A",
"r. c #847D82",
"t. c #8F7F83",
"y. c #7E828A",
"u. c #7E8391",
"i. c #848283",
"p. c #8A8385",
"a. c #8B8C85",
"s. c #84878A",
"d. c #8A868B",
"f. c #8C8B8B",
"g. c #99878A",
"h. c #928B8B",
"j. c #96928E",
"k. c #828592",
"l. c #848A97",
"z. c #898D95",
"x. c #868B9A",
"c. c #898E9C",
"v. c #9B8D93",
"b. c #8C9692",
"n. c #8C919D",
"m. c #939395",
"M. c #979496",
"N. c #9B969B",
"B. c #949B9D",
"V. c #9B999A",
"C. c #A68891",
"Z. c #A2999B",
"A. c #A3A09C",
"S. c #8B8FA0",
"D. c #8E93A3",
"F. c #8F96A8",
"G. c #9196A5",
"H. c #9397A7",
"J. c #9C9DA2",
"K. c #959BAB",
"L. c #989EAE",
"P. c #969DB1",
"I. c #989FB1",
"U. c #A79BA1",
"Y. c #99A2A8",
"T. c #9BA3B4",
"R. c #97ABB6",
"E. c #9EA6B9",
"W. c #9FA8BB",
"Q. c #A3A2A3",
"!. c #ABA4A4",
"~. c #A7A7AA",
"^. c #A5A4AD",
"/. c #ACACAE",
"(. c #B5A6AD",
"). c #B0ACAC",
"_. c #A7ACB6",
"`. c #ACAEB1",
"'. c #A0A7B9",
"]. c #A2ABBD",
"[. c #B7AEB4",
"{. c #ABB2B8",
"}. c #B4B3B3",
"|. c #B4B4BA",
" X c #BBB6BA",
".X c #BBBABB",
"XX c #C4B8BB",
"oX c #99B2C2",
"OX c #A4AEC1",
"+X c #A8AEC0",
"@X c #A7B1C4",
"#X c #AAB4C5",
"$X c #ACB6C9",
"%X c #AEB9CC",
"&X c #B4B9C7",
"*X c #BDBEC3",
"=X c #B2BBCD",
"-X c #B4BED1",
";X c #B9BFD0",
":X c #C9BAC8",
">X c #BCC4C6",
",X c #B6C1D4",
"<X c #B9C2D5",
"1X c #BAC5D5",
"2X c #BBC5D8",
"3X c #C3C1C3",
"4X c #C7C8C8",
"5X c #CCCBCC",
"6X c #D0DDCD",
"7X c #C8CAD3",
"8X c #CECED1",
"9X c #D0C9D1",
"0X c #CAD3D9",
"qX c #D4D3D4",
"wX c #D4D6DA",
"eX c #DAD8DD",
"rX c #DCDBDC",
"tX c #D7E2D7",
"yX c #D6D9E2",
"uX c #E3DEE8",
"iX c #E3E3E5",
"pX c #E7EAEA",
"aX c #EBEEF1",
"sX c #EDF4FA",
"dX c #F5F8FA",
"fX c #FDFEFE",
/* pixels */
"p w Z 8.C.v.d.1.W N N G y y Q %.L.0XiX3XQ 0 a s w R $.@.W :.:.;.1.<.;.$.#.o.q = ",
"p b n D H 6.8.&.3.@.t   N +.R p Q C i s + D &.m.Y.Q.)..X4X4X8X8X5XwXrXqX8X8X|.G ",
"b a y n J U H Y W <.i.w.4X X2 O         # &   4.rXpXpXiXrXeX4XrXfX3X4X5X4X5XrX3X",
"H . * 9 H q s H L &.N.^.N.j.w   = & + + X # -   @.3X3X5XeX8Xp.&.aX X        5 E ",
"L 2 t R W w   q L +.o.b 4.I   -         X 2 X .     b ' h.dXiX  i.qXa.r.i.&.G y ",
"' P L }. XN   a D +.$.L  X@.  - X < 1 l B / ! m q   +..X3X3Xh.M.}.}.3X4X8XiX).I ",
"' ' P F &.Z   D ' W =.=.D   &   7 M V ) ] ) } 5.~ o w 4.@.  Z.dXiXqX4X3X5XpX3XA.",
"@.' P F ' D   H 1.>.1.3.w   @ 1 f c V V ) ] ] ] { !   %.V.!.).3X5X5XqXqX8X3X}.`.",
"L P P L $.L   H 8.1.1.p.s   7 7 z c V ^ ] | { } ) )   Q.aX>X!.~.}.}.V.b.Y.{.5X<.",
": : 7 a E G   J 8.1.8.:.    5 f f m ^ ] } } [ ` ! [   f.wX%.  U A Z s A Q y.J.y.",
"7 4 7 ' :.J   E t.8.t.3.# X 5 1 + * e B ] B 3 9 e `   B.rX%.b.6X%.  a.&.B.s.`.wX",
"f f ; B.y.s 8 Z :.1.:.J.R   3 * 1 6 @ f ] B 4 v n ! 4 /.pXB.>X6X%.  `./.`.f.4XpX",
", B K `.`.Y.  J.eXqXqXpX7.  e : 2 e 0 4 _ ! < 9 b P ; XXfX_.>XiXQ.<.4.4.a.B.s.}.",
"`.tXY.0XpXiX  _.fXfXfXiX3 @ e < < 5 5 j _ _ m k B ` m >..Xb.}.>X<.Y.A.y.J.^..X:X",
"Y.P.O.oX0X4X.  .'.rXtX}.o 0 r l l z f m 5.] ( / ( [ K ` 9.9.A.>X2.1X0X^.yXyXuXeX",
"b.i   G F T s G ..9.b.<.< 9 r l M M 4 m } { ^ } { [ ! i.a.9.A.).X.;X&XG.7X9X9X[.",
"y.T a V j f l J O.Y.>XaXh.  y h m z 4 5 v M ^ ^ ) ^ I f.a.a.~.Q.s.;X&XN.7X:XXXU.",
"B.Q o a x x d O.0.R.yXsX~.  k h z f < $ 3 v ^ ~ ^ ~ F f.a.a.A.!.f.|.}.n.:X:XXX(.",
"Y.o.> 7 > *.( %.u.R.aXsX0X  e 4 5 + X 5 z < 0 m ~ c +.V.a.a.j.A.d.[.^.n.:XXX:XU.",
"I ( f l @.%.7 ..O.B.dXsX7X  - 2 5 < < g Z M 5 t M o %.m.a.h.j.j.v.U.N.r.*X:XXX(.",
"W @.m v X...  Q R.B.Y.>X0X_.  0 < r 5 5 r m B x e $ z.m.a.a.a.a.r.v.d.r.XX[.XX!.",
"s i u S A G   %.pX>XE |.{.c.8   # < r r m Z n 9   #._.{.~.B.a.7.8.g.t.3.(.(.(.Z.",
"  u u W W 4.p #.pX|.T B.$.Y Z   # . * 3 e 2 # %   k.{.&X&X&X}.J.r.8.>.1.U.U.U.Z.",
"V 6.J T %.a   %.yXY.#.#.#.;.U o = X . . .   # 8 l J.&X+X&X;X=X&X&X^.3.o.C.C.v.v.",
"*.g.- C a     2.c.2.2.2.;.;.$.e o - * - 9 0 v , 3.+X$X].#X<X<X].&X;X#X^.v.t.p.t.",
".   =     X.e.x.u.w.q.2.q.q.2.$.k ; ; ; ; > > o.+XT.=X'._.<X7X#XT.&X&X&X-X^.h.7.",
"X =   J k.x.D.P.c.e.l.l.e.k.q.e.w.W L o.@.o.q.OXOXE.-XW.E.<X2X$XP.#X&X-X;X-X;XXX",
"&   X.n.G.D.E.I.x.x.F.D.l.x.k.k.l.q.k.].#X#XOX$XE.OX,XW.E.=X2X$XI.].=X<X;X-X-X:X",
"  U F.S.D.OXOXP.x.K.T.G.G.G.c.x.D.u.e.$X-X%X@X@XT.%X,XOXT.%X1X%XT.OX-X2X-X%X-X-X",
"  x.I.u.OX$XOXD.F.W.'.I.H.I.L.G.K.D.e.$X,X%X@XoXE.,X,XW.T.$X<X=XI.+X-X-X%X$X-X2X",
"Q ^.K.l.$X%XE.D.].+XE.T.I.].T.F.I.P.e.OX,X%XW.T.OX-X,XW.T.@X=X<X'.+X&X=X&X$X,X,X",
"e.T.F.F.$X@XK.E.@X].'.E.T.@XOXP.K.E.x.E.2X#XT.E.@X,X-XE.T.@X%X;X'.OX$X#X%X$X-X,X",
"k.I.D.'.%XT.P.#X].T.'.T.].$X+XE.F.OXF.L.2X@XOXT.@X1X%XW.T.].=X=X'.$X%X'.-X@X%X-X",
"k.H.x.+X#XH.'.$XE.T.E.T.#X$X#XK.T.@XK.F.,X@X].L.%X,X%XW.T.].%X#X'.%X,X].@X$X%X-X",
"r.S.x.].T.T.]._.E.I.I.'.$X%X@XF.T.$XK.S.=XW.T.L.=X,X@XOXT.$X].'.].%X%X%XE.$X@X%X",
"e.k.k.H.L.T.'.T.I.P.I.OX$X%X+XK.OX@XK.S.+X].K.T.,X%X@X].W.$X'.T.#X%X$X%XE.W.OX%X",
"k.e.q.c.K.I.E.H.F.K.E.$X%X%XW.P.@X$XK.F.'.E.F.E.,X$X@X].].@X+XK.].,X#X%XR.T.oX-X",
"q.e.q.c.K.L.H.D.G.c.K.$X%X%XT.T.@X@XS.F.#XP.D.+X,X@XOX+XW.$X$XY.R.%X%X#XE.I.T.u.",
"p ;.w.c.G.G.n.D.D.k.D.OX-X#XT.T.@XOXD.L.#XT.D.OX%X@XoXW.].#X$XT.T.%X#X#X].W.-.O ",
"w w #.S.G.c.c.D.x.k.H.OX$X#XT.E.@X+Xc.E.OXP.K.#X%X].'.E.@X$X%XR.T.#X%X].E.,.O p "
};
