/* XPM */
static char *result[] = {
/* columns rows colors chars-per-pixel */
"40 40 235 2 ",
"   c #000001",
".  c #090202",
"X  c #00050B",
"o  c #030A0B",
"O  c #0D0C0C",
"+  c #0B070A",
"@  c #150906",
"#  c #14110E",
"$  c #18130F",
"%  c #0D0F11",
"&  c #040F11",
"*  c #0E1113",
"=  c #0A1419",
"-  c #141312",
";  c #1A1514",
":  c #161A1C",
">  c #1B1B1A",
",  c #171718",
"<  c #260A08",
"1  c #291207",
"2  c #241313",
"3  c #241C1A",
"4  c #2B1C1D",
"5  c #2B1817",
"6  c #361E1E",
"7  c #1D211E",
"8  c #0B230F",
"9  c #27201D",
"0  c #30221E",
"q  c #09192A",
"w  c #181722",
"e  c #000021",
"r  c #341E21",
"t  c #391F21",
"y  c #251F22",
"u  c #1B2224",
"i  c #1A2229",
"p  c #0E283B",
"a  c #242323",
"s  c #2A2525",
"d  c #252B2B",
"f  c #2B2C2C",
"g  c #252827",
"h  c #352624",
"j  c #3C2323",
"k  c #39292A",
"l  c #2D302F",
"z  c #282E33",
"x  c #3A2E32",
"c  c #2C3333",
"v  c #283338",
"b  c #353434",
"n  c #353B3B",
"m  c #3B3B3C",
"M  c #393737",
"N  c #432C23",
"B  c #422C2C",
"V  c #452826",
"C  c #572C22",
"Z  c #44312C",
"A  c #4C342C",
"S  c #55382C",
"D  c #462D32",
"F  c #453335",
"G  c #4C3434",
"H  c #45343B",
"J  c #4C363A",
"K  c #473B39",
"L  c #533B35",
"P  c #5B3C32",
"I  c #523B3B",
"U  c #523637",
"Y  c #64392C",
"T  c #643E38",
"R  c #723B38",
"E  c #284033",
"W  c #195032",
"Q  c #5D4135",
"!  c #5C443B",
"~  c #57433B",
"^  c #4F403F",
"/  c #6A4434",
"(  c #654A3D",
")  c #6C4B3C",
"_  c #654438",
"`  c #724C3B",
"'  c #79483A",
"]  c #76523E",
"[  c #71442F",
"{  c #002F47",
"}  c #2E3C43",
"|  c #363D43",
" . c #4C3B43",
".. c #463A42",
"X. c #543D43",
"o. c #374242",
"O. c #3D494D",
"+. c #3B4447",
"@. c #3C4A53",
"#. c #2F4048",
"$. c #3A5B63",
"%. c #4B4C4C",
"&. c #464648",
"*. c #5B4143",
"=. c #534C4C",
"-. c #5D4C4C",
";. c #574547",
":. c #444D54",
">. c #4B4D54",
",. c #584850",
"<. c #46555B",
"1. c #4B565A",
"2. c #495657",
"3. c #51545A",
"4. c #555958",
"5. c #56534E",
"6. c #644C43",
"7. c #6C4D41",
"8. c #684C46",
"9. c #774B44",
"0. c #6D5245",
"q. c #63534C",
"w. c #6C534B",
"e. c #6C584E",
"r. c #735345",
"t. c #7B5946",
"y. c #745A4D",
"u. c #7C5A4B",
"i. c #765548",
"p. c #645954",
"a. c #685954",
"s. c #725D53",
"d. c #7A5E53",
"f. c #795651",
"g. c #50605F",
"h. c #7B655C",
"j. c #776359",
"k. c #6E6059",
"l. c #4D5C63",
"z. c #4A5A64",
"x. c #535D64",
"c. c #5A5E64",
"v. c #556265",
"b. c #5C6365",
"n. c #546269",
"m. c #5B646B",
"M. c #5B696C",
"N. c #4D6875",
"B. c #5D6B73",
"V. c #566772",
"C. c #566C74",
"Z. c #636564",
"A. c #676869",
"S. c #786A63",
"D. c #636E73",
"F. c #696E77",
"G. c #6B7275",
"H. c #64747C",
"J. c #6B747B",
"K. c #6B797E",
"L. c #687578",
"P. c #737B7D",
"I. c #777A76",
"U. c #79726B",
"Y. c #823B3D",
"T. c #80513A",
"R. c #835D4B",
"E. c #845845",
"W. c #825D51",
"Q. c #89464A",
"!. c #87624D",
"~. c #846354",
"^. c #8C6453",
"/. c #8D6B5C",
"(. c #886759",
"). c #936B5C",
"_. c #956859",
"`. c #98715F",
"'. c #836D63",
"]. c #8B6D65",
"[. c #966D60",
"{. c #85736A",
"}. c #8A766B",
"|. c #897266",
" X c #967564",
".X c #997A66",
"XX c #94796C",
"oX c #9B7C6C",
"OX c #98776A",
"+X c #827D79",
"@X c #957D73",
"#X c #9C7E72",
"$X c #85827E",
"%X c #8D8279",
"&X c #9C8174",
"*X c #99857A",
"=X c #9F816E",
"-X c #A18378",
";X c #577482",
":X c #6C7B83",
">X c #647A85",
",X c #737E83",
"<X c #747E85",
"1X c #6C828B",
"2X c #688089",
"3X c #748185",
"4X c #7B8385",
"5X c #74838B",
"6X c #7B858B",
"7X c #788A8D",
"8X c #6D8793",
"9X c #768B93",
"0X c #7B8C93",
"qX c #778B98",
"wX c #7D919A",
"eX c #799197",
"rX c #66A1B2",
"tX c #838A8C",
"yX c #868788",
"uX c #9A8B83",
"iX c #848D92",
"pX c #83939B",
"aX c #879497",
"sX c #9A9A98",
"dX c #938F90",
"fX c #A38B82",
"gX c #A89E98",
"hX c #98A09D",
"jX c #889DA1",
"kX c #999FA2",
"lX c #A19DA1",
"zX c #99A6A8",
"xX c #8FA6A6",
"cX c #A2A8AB",
"vX c None",
/* pixels */
"> g l K V @   n +.b f d b b f =.h   $ ; 9 9 - O $ ; ; ; 9 3 # : # . - E Z.. b c ",
", 3 a f F V >   f n c &   l f     #         O         # $ 2 3 9 7 > g a g - u g ",
"- # > g g 2 @ &.E 5.hXvXzXI.  $ o   h ~ r.u.j.d.w.A $   O # $ > , # > 7 s 9 8 E ",
"c c > a   +.sXuXq.p.%XgXsXZ.  X h ( !. X.X`..X.X=X=X|.Q   O # O - $ 7 7 7 g w %.",
"l f > a   b.vXsXS.4.&.5.E   o A t.!.). X.X X.XoX=X*X-X*X6.. , # - : u s d f E E ",
"b s f l M b.G.M.y ;.  X s & 0 ] !.!.). X.X=XoX=XoX*XfXuX}.N   > . 9 E +.f d n o.",
"2.m h a s tXP.    3 j > @   A t.!.^.`.oX.X=X=X=X-X-XfX*X*Xe.  , O > n O.7XeX9X7X",
"G.D.c.b m aXP.b - . ; 9 + - ( E.!.(.!./. X.XXXoXXX&XuXuX*X|.Z   - % - & U.+XU.S.",
"b %.D.:.%.zX6Xb   &.Z.s   k ` Q k 0 4 Z 0./.~.0.L 0 f =.a.].y.  O - o a {.*X%X$X",
". 3 >.>.c.aX3X%.Z.$XU.. X S _ N P ` ) P _ R.R.7.( ) ) ( ^ q.y.5   ,   3 $XtXA.L.",
"b l w 1.Z.a.I.+XU.k.q.  X L ) ) ` ` ) Y [ ^.OX~./ [ t.(.(.h.j.N   $ O + E 2.  z ",
"p.p.3.c.G.G.I.$XtXhXsXK   0.t.C B , x C Y ^.OXu.C j : K 6.(.|.6.  % O   4.I.  I.",
"+XI.tXcXvXvXvXvXvXvXvXvX. j.R._ _ ( / ` T._.oX).u.T _ f.d.|.XXs.  X ; . E g.u 4.",
"+XvXvXvXvXvXvXvXvXvXvXA.  d.^.R.^.^.W.E.T.`.#XOX#X X[.oXuX@XXXk.  O   . m g.u $.",
"vXvXvXvXvXvXcXyXP.$X    J w.(.^.[.[._.E.Q..XfXOXOX#X-XfXfX%X@Xk.t 1 ^ 9 l &.u d ",
"vXvX4X4XvXvXvXvXvXvXsX^ T 8.~./.[.[.R.' 9.^.OX[.W.[.#XfX-X&X}.q.T < 4.^ 3 g n b ",
"cXvXvXvXvXvXtXdXsXvXvXs.8.8.d.(._._.!.E.C Y T 8.[._.#X-X*X@XS.S r.V 1 6.&.<.2.<.",
"3.yXvXvXvXvXvXvXkX,XH.3.9.9.q.(._._.R.` C S T 8.'.XX#X#X#XXXp.].].  xXvXN.l.3XP.",
"dX4Xn.4XtXlXvXvXvXvXvXvXgX9.w.W.^.u.A S Y R 9.R 8.J '.#X#Xj.a.fXa.$.vXvXB.S.aXyX",
"zXcX>X6XcX:Xx.,XkXvXiXS.yX-.;.d.W.9.S Y R Y.Q.Q.W.9.d.OXXXa.k X.  eXvXvXzXyXsXvX",
"vXvXvXC.z.<X>XiXiXD.#.e &.x.@.;.8.u.t.] ' ' 9.W.|./.^.h.h.K   X . @ xXvXvXvXvXvX",
"vXvXvXvXvXvXvXvXcXvX<Xp >.:.i w ! r.] ` / Y _ t.(./.(.0.x > , d 2.N.rXvXjXvXcXzX",
"vXvXvXvXvXvXvXvX>XvXvX{ m.X + H B ) t.R.!.^./.OX=X|.(.~ &.K     M.vXvXvXvXvXvXvX",
"vXvXvXvXvXvXvXvXqXvXvXx.J.:.q 8.L k ( r.u.W.u.d.h.y.L K h.M #.<.} 8 vXvXvXvXvXvX",
"vXvXvXvXvXvXvXvX8XvXV.x.c.x.} ,.r.L 4 4 N G A 5 ; ; E '.j.c H.8X;Xq . vXvXvXvXvX",
"vXvXvXvXvXvXvXvX;X:X:XV.z.m.@.X.r.) Q Z 4 2 + - k q.S.}.e.a L.8X;X}   vXvXvXvXvX",
"vXvXvXvXvXvXvXvXn.<XG.F.c.m.3.| 0.0.0.7.( P P w.h.'.'.}.;.g H.8Xz.g x.iXvXvXvXvX",
"vXvXvXvXvXcX:X{ :X<XG.,XB.c.m...! i.0.r.y.u.h.'.{.'.{.{.A m >X>X@.4.<XqXz.+.vXvX",
"vXvXkX<X:Xx.B.:X5X3X:X,XL.D.J.@.Z w.] 7.0.d.'.h.h.'.{.s.1 4.>Xn.x.,X<X7XwXv   H.",
"zXtXqX<XtXiX<X:X6X5X:XP.3X3X:X+.5 ! 0.( ( 7.w.d.h.S.h.A @ Z.>Xl.m.0XwX7XjX7Xz n.",
"iXpXiXx.c.<X,XF.iX5X<X<X3X5XH.z 5 K ! ( ( 6.0.s.h.e.I 5 3 L.wXl.m.7XjX9XqXpXn.x.",
"jXpXpX>Xq Z.<X<X0X1X:X3X7X5XO.  h k Z Q Q ! ( 6.6.G ..4 s P.wXn.m.7XqXwX7XwXwXH.",
"pXpXpX<X@.  c.tX9X9X0X7XB.w v m H x D U ! N N Z B  . .r s 3XpXM.L.9X0XpXjX9Xn.l.",
"qXpXqX<Xx.=   D.0X5XB.b   v.1X,.J H B  .q.q.*.S *.;.H r < G.0XD.4XpXwXjX7X:.  z.",
"wXqXqX>XM.c   w >.d   } :XpX5X .X.X.D D I 8.;.6.;...k h . %.3X,X6XpXwXD.:   o.M.",
"wXwXjX>Xn.n X %     V.1X5XwX5X..D X.U U G G U ,.,. .H k s   b.0XpX6X:.    : O.L.",
"qXqXeX>Xv.n   , :   V.3X:XpX:X .r  .U J U I X.-.X. .D t x | - D.K.d   : % = 2.3X",
"qX8XeX2X<.z X % %   x.K.K.pX:XX.j B G U U U X.,. .B t t =.F.m       , *   c g.D.",
"eX2X2X8XO.; * % %   z.J.:XwXF.X.D B V U U *.;.,...r r t =.A.g   > * O +   O.b.g.",
"qX8XC.C.O.  * % O   z.J.<XqXA.X.G B G U I X.;.,.H 5 r r ..+.  } u   *   u 1.2.W "
};
