/* XPM */
static char *result[] = {
/* columns rows colors chars-per-pixel */
"40 40 151 2 ",
"   c #43414B",
".  c #49454F",
"X  c #5B4647",
"o  c #4C4B55",
"O  c #534E56",
"+  c #5B4E53",
"@  c #504F59",
"#  c #585057",
"$  c #55525B",
"%  c #5B535B",
"&  c #624F51",
"*  c #645354",
"=  c #6C5856",
"-  c #63565B",
";  c #67595A",
":  c #6C5C5C",
">  c #555660",
",  c #5A5760",
"<  c #5D5A63",
"1  c #625B64",
"2  c #6C5E64",
"3  c #5C616B",
"4  c #5E6672",
"5  c #6E6366",
"6  c #64646C",
"7  c #6C666B",
"8  c #736462",
"9  c #71676A",
"0  c #746A6C",
"q  c #7B6C6D",
"w  c #626773",
"e  c #696770",
"r  c #646A75",
"t  c #6C6B73",
"y  c #656C79",
"u  c #6A6E79",
"i  c #756E72",
"p  c #796D70",
"a  c #6C717B",
"s  c #7D7173",
"d  c #73727A",
"f  c #7A747B",
"g  c #806E6C",
"h  c #837474",
"j  c #857B77",
"k  c #887877",
"l  c #81767C",
"z  c #867B7A",
"x  c #8B7D7A",
"c  c #8D837E",
"v  c #90847D",
"b  c #747780",
"n  c #767A80",
"m  c #7D7D83",
"M  c #827F85",
"N  c #868185",
"B  c #8F8884",
"V  c #85868A",
"C  c #8C8589",
"Z  c #86898D",
"A  c #8A8A8E",
"S  c #928680",
"D  c #948B85",
"F  c #9A8D84",
"G  c #948D8B",
"H  c #9A8E89",
"J  c #9D9186",
"K  c #9D948C",
"L  c #8D8E92",
"P  c #908D91",
"I  c #929295",
"U  c #9A9697",
"Y  c #94979A",
"T  c #96999C",
"R  c #9A9A9C",
"E  c #A2968C",
"W  c #A5998D",
"Q  c #A99C8E",
"!  c #A49590",
"~  c #A59A92",
"^  c #AB9D92",
"/  c #A69F9A",
"(  c #AC9E99",
")  c #AEA094",
"_  c #A2A09D",
"`  c #A9A29D",
"'  c #B2A395",
"]  c #B8A697",
"[  c #B9AB97",
"{  c #B3A599",
"}  c #B7A999",
"|  c #BBAB9B",
" . c #9B9DA1",
".. c #9FA1A0",
"X. c #A4A4A4",
"o. c #AAA7A5",
"O. c #ABA8A4",
"+. c #ADACAB",
"@. c #B2A6A2",
"#. c #B4A8A5",
"$. c #B8ACA2",
"%. c #B1AEAD",
"&. c #BDB3A9",
"*. c #AFAFB1",
"=. c #AEB1B2",
"-. c #B5B4B3",
";. c #B9B6B3",
":. c #B6B8B6",
">. c #BCB9B5",
",. c #BCBBB9",
"<. c #C0AF9C",
"1. c #C1B09C",
"2. c #C0AEA1",
"3. c #C1B1A3",
"4. c #CABAA4",
"5. c #C3B5AA",
"6. c #C0B8AE",
"7. c #CBBEAD",
"8. c #D0BFAD",
"9. c #C3BBB7",
"0. c #CABDB2",
"q. c #C1BEBB",
"w. c #D0C2AF",
"e. c #C4C1BD",
"r. c #CCC2B9",
"t. c #D4C3B3",
"y. c #DAC8B3",
"u. c #D4C6B9",
"i. c #D7CABE",
"p. c #C4C3C2",
"a. c #C9C6C3",
"s. c #C5C8C7",
"d. c #CBC9C7",
"f. c #C5C8C8",
"g. c #CACCCB",
"h. c #DBCCC4",
"j. c #D5D2CE",
"k. c #D5D5D2",
"l. c #D8D7D5",
"z. c #DBDBD9",
"x. c #E1CFC3",
"c. c #E4D3C5",
"v. c #E0D5CB",
"b. c #E0DDDA",
"n. c #ECE3DB",
"m. c #DFE1E1",
"M. c #E8E6E5",
"N. c #ECECEB",
"B. c #EAEDF1",
"V. c #F2F5F5",
"C. c None",
/* pixels */
"C.C.C.C.C.C.C.C.C.C.C.C.C.C.C.C.C.C.C.C.C.C.C.C.C.C.C.C.C.C.C.C.C.C.C.C.C.C.C.C.",
"C.C.C.C.C.C.C.C.C.C.C.C.C.C.C.V.V.M.z.l.l.z.N.C.C.C.C.C.C.C.C.C.C.C.C.C.C.C.C.C.",
"C.C.C.C.C.C.C.C.C.C.C.C.C.C.B.N.l.g.p.p.d.j.b.k.d.C.C.C.C.C.C.C.C.C.C.C.C.C.C.C.",
"C.C.C.C.C.C.C.C.C.C.C.C.C.C.m.:.;.;.,.,.q.q.q.e.j.d.C.C.C.C.C.C.C.C.C.C.C.C.C.C.",
"C.C.C.C.C.C.C.C.C.C.C.C.C.p.*.-.;.*.*.*.*.-.;.,.,.r.a.C.C.C.C.C.C.C.C.C.C.C.C.C.",
"C.C.C.C.C.C.C.C.C.C.C.C.g.:.-.-.*.*.-.-.;.;.>.>.>.>.e.,.C.C.C.C.C.C.C.C.C.C.C.C.",
"C.C.C.C.C.C.C.C.C.C.C.C.f.-.-.*.*.%.+.%.+.+.X.X.o.+.%.q.C.C.C.C.C.C.C.C.C.C.C.C.",
"C.C.C.C.C.C.C.C.C.C.C.g.g.-.o.o.o.o.X. . .T R  .T T o.-.C.C.C.C.C.C.C.C.C.C.C.C.",
"C.C.C.C.C.C.C.C.C.C.C.z.p.R  .R L L V m m m m V Y Y I :.C.C.C.C.C.C.C.C.C.C.C.C.",
"C.C.C.C.C.C.C.C.C.C.C.s.R R Z a y y u d d u 4 4 u Z I X.X.C.C.C.C.C.C.C.C.C.C.C.",
"C.C.C.C.C.C.C.C.C.C.C.X. .C d n u u u f d w w y d 6 n ..R C.C.C.C.C.C.C.C.C.C.C.",
"C.C.C.C.C.C.C.C.C.C.C.+.P u m d y u t M z e w e d i 3 Y X.C.C.C.C.C.C.C.C.C.C.C.",
"C.C.C.C.C.C.C.C.C.C.C.X.A b N n f d f h x g t i j i t T C.C.C.C.C.C.C.C.C.C.C.C.",
"C.C.C.C.C.C.C.C.C.C.C.X.I d C l f f f h x h h q s s e X.X.C.C.C.C.C.C.C.C.C.C.C.",
"C.C.C.C.C.C.C.C.C.C.C.C.P i N s s h h h k k h q q i i ..C.C.C.C.C.C.C.C.C.C.C.C.",
"C.C.C.C.C.C.C.C.C.C.C.C.U f f i p g q 9 9 9 s g 0 7 G _ C.C.C.C.C.C.C.C.C.C.C.C.",
"C.C.C.C.C.C.C.C.C.C.C.C.o.G e t 0 q 2 > , > 1 5 2 t *.X.C.C.C.C.C.C.C.C.C.C.C.C.",
"C.C.C.C.C.C.C.C.C.C.C.C.C.-.t 1 7 1 , 1 1 1 > < # d :.+.C.C.C.C.C.C.C.C.C.C.C.C.",
"C.C.C.C.C.C.C.C.C.C.C.C.C.,.U @ 1 1 1 2 2 2 2 1   L p.C.C.C.C.C.C.C.C.C.C.C.C.C.",
"C.C.C.C.C.C.C.C.C.C.C.C.C.C.,.1 > 1 1 % O # % o 1 *.:.C.C.C.C.C.C.C.C.C.C.C.C.C.",
"C.C.C.C.C.C.C.C.C.C.C.C.C.C.s.R o $ % $ o @ O   L p.:.C.C.C.C.C.C.C.C.C.C.C.C.C.",
"C.C.C.C.C.C.C.C.C.C.C.C.C.C.k.-.% $ @ @ o o o . U f.-.C.C.C.C.C.C.C.C.C.C.C.C.C.",
"C.C.C.C.C.C.C.C.C.C.C.C.C.C.C.%.9 % $ o o o % + z a.C.C.C.C.C.C.C.C.C.C.C.C.C.C.",
"C.C.C.C.C.C.C.C.C.C.C.C.C.C.C.o.p - 1 # # % - * = U ;.C.C.C.C.C.C.C.C.C.C.C.C.C.",
"C.C.C.C.C.C.C.C.C.C.C.C.C.C.e.@.: : - * * * * = * v $.5.6.C.C.C.C.C.C.C.C.C.C.C.",
"C.C.C.C.C.C.C.C.C.C.C.C.C.5.0.~ 8 # * * * & + X = E ^ ) 2.t.0.r.C.C.C.C.C.C.C.C.",
"C.C.C.C.C.C.C.C.C.C.C.n.i.5.| ^ J q : ; ; = 2 h E ~ ^ { } | 1.8.t.w.r.C.C.C.C.C.",
"C.C.C.C.C.C.C.C.C.n.v.u.| &.{ ( ~ K G G B B K ~ E W ^ ) } | | | 1.4.y.w.C.C.C.C.",
"C.C.C.C.C.C.C.C.x.c.2.| $.{ ) ^ ~ ~ U K K K K K E ^ ^ ' { | | | | 1.[ 1.w.$.C.C.",
"C.C.C.C.C.C.n.h.8.2.$.$.{ { ^ ^ ^ ~ ! E E U ~ K ~ ^ ^ ^ ' } [ [ ' ' ' ) ) 7.C.C.",
"C.C.C.C.C.h.c.2.2.$.{ { { ' ^ / ~ / ~ ^ ~ ^ E ^ ^ ) ^ ^ ] | [ | } ) ) ) Q ' C.C.",
"C.C.C.C.9.0.) { ' { { { { ^ ^ ^ ^ ^ ) ) { ) ^ ^ ) ' ] ' ] ] [ [ [ ' Q K ) K C.C.",
"C.C.C.C.5.( ~ ~ ( ^ ' ' ) ( ^ ^ ^ ^ Q ^ { ' ) Q ) ] ' ' ] ' ] [ ] ' Q Q ) D C.C.",
"C.C.C.#.( ! ~ ! ^ ^ ) ) ) ) ) ^ ^ ' ^ ^ ^ ^ ^ ' Q ' ' ' ' ' ' ' ] ' Q W K C.C.C.",
"C.C.C.#.H H K E ~ ^ ^ ^ ) ) ' ' ' ^ ] ' ' ^ ' ^ Q ) ' ' ' ' ' ' ' ) Q Q C.C.C.C.",
"C.C.O.( H D H D ! ^ Q ^ Q ^ ) ) ' ^ Q ^ ) ^ ^ ) ) ) ) ) ' Q Q ' ) Q ' v C.C.C.C.",
"C.C.` K D S D S v E Q Q ! Q Q Q Q ) Q Q W E Q E E Q Q ' ) Q Q Q Q W K C.C.C.C.C.",
"C.C.` H S x v c x v F W W W Q Q Q Q Q Q Q F E Q Q Q Q Q Q Q Q W K ) C.C.C.C.C.C.",
"C.C./ D c z j z v S v J J W Q Q Q Q Q Q ^ W E Q Q Q Q W Q Q Q E Q B C.C.C.C.C.C.",
"C.C.` D z j j j x v v v v F J W W E E Q Q Q F E E W W W Q W E E B C.C.C.C.C.C.C."
};
