/* XPM */
static char *result[] = {
/* columns rows colors chars-per-pixel */
"40 40 205 2 ",
"   c #000003",
".  c #00000B",
"X  c #010313",
"o  c #050B13",
"O  c #02011C",
"+  c #030C1C",
"@  c #07111C",
"#  c #0E151D",
"$  c #031518",
"%  c #111215",
"&  c #12161B",
"*  c #13181E",
"=  c #1B1B1D",
"-  c #000B24",
";  c #011222",
":  c #0E1922",
">  c #05192B",
",  c #071625",
"<  c #111721",
"1  c #141C24",
"2  c #191E25",
"3  c #151E2A",
"4  c #181F29",
"5  c #051C31",
"6  c #141E31",
"7  c #21062C",
"8  c #16212C",
"9  c #1A222B",
"0  c #192027",
"q  c #152234",
"w  c #192532",
"e  c #1C2835",
"r  c #16253A",
"t  c #19263C",
"y  c #1B2A3C",
"u  c #1E313F",
"i  c #232329",
"p  c #2A2528",
"a  c #252B33",
"s  c #2B2B33",
"d  c #222C3C",
"f  c #2D2E3A",
"g  c #262337",
"h  c #352C35",
"j  c #312E3A",
"k  c #273135",
"l  c #2B3234",
"z  c #23323D",
"x  c #2A323B",
"c  c #2C3A3A",
"v  c #353136",
"b  c #32333C",
"n  c #39343B",
"m  c #3A383E",
"M  c #303B3F",
"N  c #443A3C",
"B  c #473638",
"V  c #572626",
"C  c #49403F",
"Z  c #56433F",
"A  c #1C2B42",
"S  c #212E42",
"D  c #243343",
"F  c #2C3A46",
"G  c #23344C",
"H  c #29364B",
"J  c #2A394A",
"K  c #283643",
"L  c #343441",
"P  c #3A3641",
"I  c #323B44",
"U  c #393945",
"Y  c #323C4B",
"T  c #3A3B4E",
"R  c #3B334F",
"E  c #443D42",
"W  c #4C3D45",
"Q  c #4C3D48",
"!  c #423D55",
"~  c #3C4245",
"^  c #3B444B",
"/  c #37414C",
"(  c #3A4553",
")  c #4E4343",
"_  c #464044",
"`  c #534343",
"'  c #554A47",
"]  c #52474E",
"[  c #5B4B4B",
"{  c #59514F",
"}  c #444D53",
"|  c #464952",
" . c #5B4E50",
".. c #504850",
"X. c #4C555C",
"o. c #5D5253",
"O. c #55555B",
"+. c #604F4B",
"@. c #63544E",
"#. c #6A4F56",
"$. c #645553",
"%. c #695453",
"&. c #645956",
"*. c #6C5A55",
"=. c #655C5C",
"-. c #6B5C5C",
";. c #605459",
":. c #725B55",
">. c #7B585E",
",. c #74615D",
"<. c #7C655E",
"1. c #77645B",
"2. c #5B5965",
"3. c #645F65",
"4. c #5B6265",
"5. c #596268",
"6. c #696265",
"7. c #756462",
"8. c #7B6662",
"9. c #7B6B64",
"0. c #726B69",
"q. c #7B6D6B",
"w. c #726768",
"e. c #7D726B",
"r. c #676976",
"t. c #796F72",
"y. c #6D737B",
"u. c #7D7373",
"i. c #717579",
"p. c #AD2F2D",
"a. c #AB322F",
"s. c #A83737",
"d. c #91705D",
"f. c #836C65",
"g. c #846767",
"h. c #83736D",
"j. c #8A746B",
"k. c #897469",
"l. c #957C6E",
"z. c #967A6A",
"x. c #886E72",
"c. c #847673",
"v. c #8C7B74",
"b. c #877A79",
"n. c #947C74",
"m. c #9A7D74",
"M. c #927975",
"N. c #8E827D",
"B. c #8E8077",
"V. c #9B8274",
"C. c #93817A",
"Z. c #9D827B",
"A. c #9D8A7F",
"S. c #918177",
"D. c #A08675",
"F. c #A1847B",
"G. c #A38A7C",
"H. c #747F84",
"J. c #7C7B86",
"K. c #78778A",
"L. c #857E8E",
"P. c #74848A",
"I. c #708083",
"U. c #7E8C91",
"Y. c #8E8582",
"T. c #80828D",
"R. c #948681",
"E. c #9A8B84",
"W. c #968B87",
"Q. c #9E908D",
"!. c #858492",
"~. c #828D95",
"^. c #8B8D98",
"/. c #839093",
"(. c #87959A",
"). c #979495",
"_. c #A48B83",
"`. c #A98F83",
"'. c #A38F88",
"]. c #A48380",
"[. c #AA9386",
"{. c #A3938B",
"}. c #AC948A",
"|. c #AB998E",
" X c #A49086",
".X c #B09A8D",
"XX c #A69992",
"oX c #AD9C94",
"OX c #AE9F9B",
"+X c #A79691",
"@X c #B29C93",
"#X c #B19D99",
"$X c #B19692",
"%X c #AEA097",
"&X c #B5A39B",
"*X c #BFAB9F",
"=X c #8C9DA3",
"-X c #9899A6",
";X c #9DA3AE",
":X c #98A8AB",
">X c #97AAB2",
",X c #B6A3A1",
"<X c #C4A7A3",
"1X c #CBB7A9",
"2X c None",
/* pixels */
"2X2X2X2X2X2X2X2X2X2X2X2X2X2X2X2X2X2X2X2X2X2X2X2X2X2X2X2X2X2X2X2X2X2X2X2X2X2X2X2X",
"2X2X2X2X2X2X2X2X2X2X2X2X2X2X2X2X1.<.f.j.v.l.v.2X2X2X2X2X2X2X2X2X2X2X2X2X2X2X2X2X",
"2X2X2X2X2X2X2X2X2X2X2X2X2X6.f.z.V.V.A.G.[.}..X[. XC.2X2X2X2X2X2X2X2X2X2X2X2X2X2X",
"2X2X2X2X2X2X2X2X2X2X2X2X8.l.V.D.A.`.[.|..X}.|..X*X1X Xo.2X2X2X2X2X2X2X2X2X2X2X2X",
"2X2X2X2X2X2X2X2X2X2X2Xv.V.V.V.G.G.[.}.}.}.}.@X%X&X&X&XR.O.2X2X2X2X2X2X2X2X2X2X2X",
"2X2X2X2X2X2X2X2X2X2X2XE.k.l.V.G.G.[.}.}.}.$X@X@X&X&X%XQ.u.2X2X2X2X2X2X2X2X2X2X2X",
"2X2X2X2X2X2X2X2X2X2X2Xj.z.l.V.G.`.}.[.[.}.}.{. X|.%X%XXXY.2X2X2X2X2X2X2X2X2X2X2X",
"2X2X2X2X2X2X2X2X2X2X2Xk.<.*.*.,.k.n.R.n.h.-.o.=.0.N.oX&XW.2X2X2X2X2X2X2X2X2X2X2X",
"2X2X2X2X2X2X2X2X2X2X2Xh.[ [ ' N ` ,.n.n.<.` ` :.1.B.+X%XY.b.2X2X2X2X2X2X2X2X2X2X",
"2X2X2X2X2X2X2X2X2X2X2XN.>.Q _ n h [ E.#Xg.B B %.q.B.|.&XW.+X}.2X2X2X2X2X2X2X2X2X",
"2X2X2X2X2X2X2X2X2X2X2Xv.f.:.#.#.>.9._.,XoX'.m.L.G.$XoX&XW.].<X2X2X2X2X2X2X2X2X2X",
"2X2X2X2X2X2X2X2X2X2X2Xv.m.F.m.m.m.k._.,XOX'._.$X@X&X&X&Xb.].2X2X2X2X2X2X2X2X2X2X",
"2X2X2X2X2X2X2X2X2X2X2Xt.n.Z.m.m.<.g.G.&XOXm.j.m.[.&X&XXXq.#X2X2X2X2X2X2X2X2X2X2X",
"2X2X2X2X2X2X2X2X2X2X2X2Xt.M.x.g.8.%.$.7.&.w.t.*.f.{.oXN.3.2X2X2X2X2X2X2X2X2X2X2X",
"2X2X2X2X2X2X2X2X2X2X2X2X6.b.q.[ E g j Q Q Q h f -.C.c.=.2X2X2X2X2X2X2X2X2X2X2X2X",
"2X2X2X2X2X2X2X2X2X2X2X2X2X3.-.j j ] #.>.g.x.,.)  .=._ | 2X2X2X2X2X2X2X2X2X2X2X2X",
"2X2X2X2X2X2X2X2X2X2X2X2X2X( T U ]  .Q E E { o.) m m e 4.2X2X2X2X2X2X2X2X2X2X2X2X",
"2X2X2X2X2X2X2X2X2X2X2X2X2X2XS g f j f f f m E b b > 2.).2X2X2X2X2X2X2X2X2X2X2X2X",
"2X2X2X2X2X2X2X2X2X2X2X2X2X2X/ t 6 f f j f s f a - | Y.Q.0.z 2X2X2X2X2X2X2X2X2X2X",
"2X2X2X2X2X2X2X2X2X2X2X2XY y S ..s > 3 9 3 ; ; 9 O.b.R.E.W.P q z c I ( 2X2X2X2X2X",
"2X2X2X2X2X2X2X2X2XY Y H A t 5 &.%.E m v p _ O.u.R.R.S.E.e.8 8 8 8 w u K F / 2X2X",
"2X2X2X2X2X2X2XD S y A A r r > E *.*.@.' ` q.N.R.S.S.R.h.i 6 8 q w w w w u z D / ",
"2X2X2XH G G G A 6 6 6 r t q q ; s ' $.@.[ *.h.B.S.v.0.v ; 0 8 q 8 8 w e e e u w ",
"2XJ G A A A r A r 6 3 q r r 3 4 , + p N _ ' &.$.=._ + , 0 3 8 8 8 w 8 8 w e e w ",
"D y A A t t t t r 3 3 6 r q 6 3 2 1 , ; ; ; ; + O ; w 2 3 3 3 9 8 8 8 8 w 9 w w ",
"q q r r r r q r r 6 1 3 q r 3 3 4 < 1 2 4 3 2 2 9 9 0 < 1 3 8 8 8 8 8 : 8 8 8 8 ",
"3 3 6 q r q q q q 3 3 3 8 r 8 3 3 1 1 1 3 3 1 * 2 8 3 1 1 0 8 3 8 8 8 8 8 0 0 0 ",
"1 3 6 6 q q q q 6 6 1 1 3 w q 3 4 1 * 1 2 3 3 1 2 3 3 1 3 8 3 2 1 8 1 3 0 8 8 0 ",
"< 3 : 3 8 8 q 3 8 8 3 1 3 w w 3 3 4 < * 2 3 2 1 3 2 1 1 1 : # # # 3 0 1 : 8 8 0 ",
"< < < 1 3 q 6 3 3 3 1 1 2 8 8 3 1 1 1 & 1 3 3 1 2 3 2 1 0 a k c / M M k * 0 0 1 ",
"< 1 1 < : q 6 3 3 3 1 * 1 3 q 3 3 1 * & * 2 # 1 1 1 1 # s ^ } T R | ^ x : 8 1 8 ",
"& & # 1 1 : 3 8 3 3 1 1 1 3 8 8 1 2 1 & & 2 1 1 1 1 1 # s ^ U S ! M k c : 0 1 8 ",
"& & & < * : 8 8 : 3 1 1 * 1 0 8 1 0 * & & 0 0 * * : 1 * @ ^ I.U.~.O.I.4.. @ 0 2 ",
"& & & # * # 1 8 1 8 1 1 # 1 1 8 8 1 * # % & 1 0 * * * o X.~.:X~.I.4./.=XP.e # 0 ",
"& & & < * # # 0 1 0 3 1 * & 1 1 0 0 * & * * 0 1 * *   X.(./.~ 7 X I s 4.>XP.  0 ",
"& & & & & & # * * 1 * 1 & & * * * 0 * * * * * 1 0 0   /.(.j O . r.L.2.r.~.=Xl @ ",
"= = = 2 = * % & # * * * # & % * * 0 & * & & & * * 0   U.y.U O.J.-X-X!.K.K.^ 0 1 ",
".       . X # % & & 1 * & % % & & & % % % % & % & * 0 % l i.J.-X;X;X~.K.X.  0 & ",
":.1.1.e.c.e.&.p $ % * 0 0 * % % % & % % % % % % & * * *   l 6.~.^.!.!.r.x 1 = $ ",
"d.z.V.G._.A.f.B o = % % & * * * & & & % % % % % % % & * & i ~ y.!.L.J.c x % $ V "
};
