/* XPM */
static char *result[] = {
/* columns rows colors chars-per-pixel */
"40 40 162 2 ",
"   c #030304",
".  c #090707",
"X  c #050708",
"o  c #080708",
"O  c #070809",
"+  c #0B0A0C",
"@  c #150000",
"#  c #1B0201",
"$  c #180A05",
"%  c #140D0D",
"&  c #1C0D0C",
"*  c #1C110F",
"=  c #0E0E10",
"-  c #110E12",
";  c #180F10",
":  c #121115",
">  c #1E1312",
",  c #171619",
"<  c #191719",
"1  c #1D1819",
"2  c #240201",
"3  c #200E0C",
"4  c #2C0F08",
"5  c #22110E",
"6  c #2A120E",
"7  c #241412",
"8  c #2B1513",
"9  c #231A17",
"0  c #2C1816",
"q  c #271A1B",
"w  c #2C1C1B",
"e  c #331611",
"r  c #331A16",
"t  c #3D1D17",
"y  c #35171A",
"u  c #341C1A",
"i  c #3A1E1A",
"p  c #34211E",
"a  c #3C211D",
"s  c #1F1C20",
"d  c #211E23",
"f  c #252325",
"g  c #2C2323",
"h  c #2A2A27",
"j  c #252629",
"k  c #29262C",
"l  c #2B2A2C",
"z  c #342322",
"x  c #3B2422",
"c  c #3B2926",
"v  c #342B2A",
"b  c #3C2B2B",
"n  c #30302F",
"m  c #3F302F",
"M  c #2D2E33",
"N  c #312C32",
"B  c #333232",
"V  c #393334",
"C  c #35353A",
"Z  c #3A3A3C",
"A  c #42231D",
"S  c #4B251D",
"D  c #4E281F",
"F  c #422522",
"G  c #4A2124",
"H  c #442A26",
"J  c #4B2B24",
"K  c #452D2A",
"L  c #4A2E29",
"P  c #502226",
"I  c #522C24",
"U  c #522529",
"Y  c #43302E",
"T  c #4E312C",
"R  c #523126",
"E  c #54322C",
"W  c #5A362E",
"Q  c #433433",
"!  c #4D3535",
"~  c #44393B",
"^  c #4C3C3B",
"/  c #523633",
"(  c #583631",
")  c #563935",
"_  c #5C3A32",
"`  c #543C3B",
"'  c #5C3E3B",
"]  c #61322C",
"[  c #613630",
"{  c #653D37",
"}  c #653E38",
"|  c #5C403B",
" . c #65423B",
".. c #3D3B42",
"X. c #413E42",
"o. c #424243",
"O. c #464349",
"+. c #4B494C",
"@. c #564344",
"#. c #5C4341",
"$. c #524C4E",
"%. c #594848",
"&. c #4D4A51",
"*. c #524E53",
"=. c #535356",
"-. c #5B5354",
";. c #53535A",
":. c #5B5658",
">. c #5A585D",
",. c #634743",
"<. c #6A4741",
"1. c #6D4943",
"2. c #604B4D",
"3. c #6E4F49",
"4. c #724C45",
"5. c #6C514F",
"6. c #7C534F",
"7. c #7B5650",
"8. c #795E5B",
"9. c #5F5D62",
"0. c #696466",
"q. c #65636B",
"w. c #6A686C",
"e. c #6F6B73",
"r. c #777479",
"t. c #7A7678",
"y. c #76787B",
"u. c #78797D",
"i. c #817E82",
"p. c #848386",
"a. c #868589",
"s. c #88878B",
"d. c #87888D",
"f. c #8A898D",
"g. c #8D8D92",
"h. c #908F94",
"j. c #8F9094",
"k. c #929196",
"l. c #96959A",
"z. c #98979C",
"x. c #9A999E",
"c. c #9D9DA2",
"v. c #A09FA4",
"b. c #9FA0A5",
"n. c #A1A1A6",
"m. c #A5A5AA",
"M. c #A8A7AC",
"N. c #A7A8AD",
"B. c #A9A9AF",
"V. c #ADADB2",
"C. c #B1B1B7",
"Z. c #B3B4B9",
"A. c #B9B9BE",
"S. c #BDBDC3",
"D. c #C4C4CB",
"F. c #C8C8CF",
"G. c #CDCDD3",
"H. c #D2D2D7",
"J. c #D4D5DA",
"K. c #D8D8DF",
"L. c #EAEBF2",
"P. c None",
/* pixels */
"P.P.P.P.P.P.P.P.P.P.P.P.P.P.P.P.P.P.P.P.P.P.P.*.P.P.P.P.P.P.P.P.P.P.P.P.P.P.P.P.",
"P.P.P.P.P.P.P.P.P.P.P.P.P.P.P.9.;.P.P.P.;.k d ;.....P.P.P.P.P.P.P.P.P.P.P.P.P.P.",
"P.P.P.P.P.P.P.P.P.P.P.P.P.P.P.P.P.X.l k l - , = - , s k P.P.P.P.P.P.P.P.P.P.P.P.",
"P.P.P.P.P.P.P.P.P.P.P.P.P.P.P.q.Z N d     + O % = - - - , N &.P.P.P.P.P.P.P.P.P.",
"P.P.P.P.P.P.P.P.P.P.P.P.P.P...M f   + = = = = = = O = = o - d d >.P.P.P.P.P.P.P.",
"P.P.P.P.P.P.P.P.P.P.P.P.P.e.N   - = - = + o O . o o X + O - + - d Z P.P.P.P.P.P.",
"P.P.P.P.P.P.P.P.P.P.P.P.P.O.s = + = = o o           X X o X = = + o.P.P.P.P.P.P.",
"P.P.P.P.P.P.P.P.P.P.P.P.C   o + +         + % % O .       o o o : M Z P.P.P.P.P.",
"P.P.P.P.P.P.P.P.P.P.P.P.C   = o   % c z p x H H x x p ; o   o O X   j P.P.P.P.P.",
"P.P.P.P.P.P.P.P.P.P.P.C = O +   0 ! ` E E ( E E L J H x 7 ;   o   - Z P.P.P.P.P.",
"P.P.P.P.P.P.P.P.P.P.P...d =   9 ! / T T ( ) _ ( / L J x z u >     , P.P.P.P.P.P.",
"P.P.P.P.P.P.P.P.P.P.P.P.&.  X b ! ! ,.5.4.4.1.1.<.<.} ) L a 0 -   , P.P.P.P.P.P.",
"P.P.P.P.P.P.P.P.P.P.P.P.P., & K ! #.,.` (  . . .} W H K H x r >   M P.P.P.P.P.P.",
"P.P.P.P.P.P.P.P.P.P.P.P.P.M : ! ` K 6 e r D I D S e 3 & 7 a w % : P.P.P.P.P.P.P.",
"P.P.P.P.P.P.P.P.P.P.P.P.P.M 1 ` K i x 8 & r J S 6 & * r u 6 r $ d P.P.P.P.P.P.P.",
"P.P.P.P.P.P.P.P.P.P.P.P.P.M l ` r w 1 % 5 & T ' 8 % > ; 7 & 0 5 k P.P.P.P.P.P.P.",
"P.P.P.P.P.P.P.P.P.P.P.P.P.P.~ / r w q 7 8 y W <.A & > % > & 8 0 X.P.P.P.P.P.P.P.",
"P.P.P.P.P.P.P.P.P.P.P.P.P.P.%.#.' T i y a P } 7.E 8 8 8 0 A J a Q P.P.P.P.P.P.P.",
"P.P.P.P.P.P.P.P.P.P.P.P.P.) #.,. .W J E E E 4.7.{ A t a A J R F e z P.P.P.P.P.P.",
"P.P.P.P.P.P.P.P.P.P.P.P.P.' ^ / R E _ _ I { [ ] I P S S S A t r 0 K P.P.P.P.P.P.",
"P.P.P.P.P.P.P.P.P.P.P.P.P.5.Q H J W _ E E t $ t & e A A a i r 8 r @.P.P.P.P.P.P.",
"P.P.P.P.P.P.P.P.P.P.P.P.P.8.' p J R R E ( a & ; + 5 F F a i r $ F %.P.P.P.P.P.P.",
"P.P.P.P.P.P.P.P.P.P.P.P.P.P.%.m H J T T F z 0 y e 7 r r r u 6 g ^ P.P.P.P.P.P.P.",
"P.P.P.P.P.P.P.P.P.P.P.P.P.P.P.P.b c x 0 7 u i y e 7 * 5 0 8 q P.P.P.P.P.P.P.P.P.",
"P.P.P.P.P.P.P.P.P.P.P.P.P.P.P.P.Q c x w w G U J G y 7 8 0 5 V P.P.P.P.P.P.P.P.P.",
"P.P.P.P.P.P.P.P.P.P.P.P.P.P.P.P.v Y c p a i r 6 8 8 8 0 0 w 9 P.P.P.P.P.P.P.P.P.",
"P.P.P.P.P.P.P.P.P.P.P.P.P.P.P.m.$.r m p u a e 5 8 8 7 7 w * C P.P.P.P.P.P.P.P.P.",
"P.P.P.P.P.P.P.P.P.S.D.S.m.C.S.m.-.# m z x A a a y r 8 q 9 > g w.x.v.P.P.P.P.P.P.",
"P.P.P.P.G.F.D.F.F.S.S.S.c.n.M.h.Q 0 g w p p a a i r 9 > * 9 0   f.M.M.M.V.V.V.P.",
"P.J.H.K.K.G.S.C.C.V.V.S.v.M.C.h.Y r p w > % 8 0 7 * ; * 5 0 0 h f.v.c.x.M.A.D.A.",
"J.L.G.D.S.S.A.V.B.B.v.C.v.m.C.v.~ r z r w 7 + + + * 7 7 5 z # $.l.c.x.x.c.n.m.V.",
"G.S.A.A.C.C.C.M.m.N.c.Z.m.v.V.m.0.2 v u w w 0 5 * 5 7 8 0 g @ t.c.c.v.x.c.x.x.m.",
"A.C.V.V.N.N.B.M.b.b.c.V.m.m.V.n.k.b u u w w 0 7 7 9 8 8 z @ +.l.l.x.v.l.x.x.n.n.",
"Z.V.V.B.b.n.n.m.x.z.x.B.B.l.n.z.n.t.@ b r 0 0 7 7 8 7 p 2 g a.x.h.l.n.x.x.z.z.x.",
"m.V.n.m.x.x.b.m.v.z.x.V.M.f.c.l.c.b.:.@ c r u r r 0 p 6 w i.k.k.h.k.x.z.x.z.l.x.",
"O.l.m.b.x.x.x.b.n.x.c.B.M.h.l.g.z.b.z.&.  u x i r p 2 w i.k.g.k.h.h.k.l.z.z.l.n.",
", l j.N.x.l.x.b.c.c.c.m.M.l.g.g.z.c.c.c.q.2 # 4 0 @ V i.h.a.j.k.h.k.k.l.x.z.n.z.",
"n h % u.b.x.z.c.c.c.c.m.n.c.k.g.c.z.d.k.z.i.:.b t :.a.g.d.j.k.k.h.k.l.l.x.m.l.P.",
"l n n   =.f.b.b.c.c.c.m.v.c.z.k.l.k.f.a.f.h.g.p.i.f.s.a.g.k.k.k.k.k.l.m.l.P.P.P.",
"P.P.P.P.  . y.x.b.c.c.v.m.c.c.l.k.k.g.f.a.a.d.g.s.p.p.f.k.h.h.k.k.l.l.k.P.P.P.P."
};
