/* XPM */
static char *result[] = {
/* columns rows colors chars-per-pixel */
"40 40 189 2 ",
"   c #040304",
".  c #090606",
"X  c #0C0807",
"o  c #070708",
"O  c #090708",
"+  c #0C0A0B",
"@  c #070808",
"#  c #150201",
"$  c #1B0000",
"%  c #120C0C",
"&  c #1B0B0A",
"*  c #1A0907",
"=  c #1F100E",
"-  c #0E0D11",
";  c #110F11",
":  c #141214",
">  c #191012",
",  c #171519",
"<  c #1B161A",
"1  c #1D181D",
"2  c #290300",
"3  c #2A0A03",
"4  c #240B08",
"5  c #390E01",
"6  c #2A110D",
"7  c #33140D",
"8  c #3A140D",
"9  c #251312",
"0  c #2B1513",
"q  c #2D1916",
"w  c #2F1A19",
"e  c #211A1C",
"r  c #341612",
"t  c #341914",
"y  c #3C1C15",
"u  c #331C1A",
"i  c #3B1E1A",
"p  c #351714",
"a  c #3D211D",
"s  c #071628",
"d  c #221C23",
"f  c #2C2224",
"g  c #2A2629",
"h  c #392222",
"j  c #3A2524",
"k  c #332E32",
"l  c #363236",
"z  c #3F3D3F",
"x  c #3C3335",
"c  c #411D14",
"v  c #431E1C",
"b  c #43221A",
"n  c #4B241C",
"m  c #4D291F",
"M  c #51251D",
"N  c #431F20",
"B  c #432622",
"V  c #442A27",
"C  c #4D2B22",
"Z  c #472E2A",
"A  c #4B2826",
"S  c #512C23",
"D  c #5A2D23",
"F  c #4A332E",
"G  c #543026",
"H  c #5A3227",
"J  c #51322B",
"K  c #5E342B",
"L  c #473434",
"P  c #4B3636",
"I  c #553B35",
"U  c #563835",
"Y  c #602F25",
"T  c #65372C",
"R  c #65392F",
"E  c #653426",
"W  c #672F36",
"Q  c #653C33",
"!  c #6B3639",
"~  c #57413E",
"^  c #64423A",
"/  c #6D443B",
"(  c #72443A",
")  c #3D3C42",
"_  c #2E3648",
"`  c #463F44",
"'  c #3E495B",
"]  c #464246",
"[  c #4B4448",
"{  c #564849",
"}  c #40495C",
"|  c #524E53",
" . c #555256",
".. c #5C5A5E",
"X. c #51525A",
"o. c #624843",
"O. c #764941",
"+. c #7B4E45",
"@. c #775248",
"#. c #675C5D",
"$. c #745F5C",
"%. c #77615D",
"&. c #7A625E",
"*. c #4B5567",
"=. c #545968",
"-. c #555E70",
";. c #635F64",
":. c #5E6065",
">. c #5C6371",
",. c #64636C",
"<. c #696467",
"1. c #636B7C",
"2. c #686B77",
"3. c #68707F",
"4. c #767073",
"5. c #AE0000",
"6. c #AD1300",
"7. c #B41400",
"8. c #AC1F17",
"9. c #AC241D",
"0. c #B0221B",
"q. c #AE2E2B",
"w. c #AC2823",
"e. c #AC302E",
"r. c #B3302D",
"t. c #AC3534",
"y. c #AE3B3B",
"u. c #B43533",
"i. c #83584E",
"p. c #9F5358",
"a. c #AE4242",
"s. c #B34142",
"d. c #A9565C",
"f. c #A8656C",
"g. c #646F80",
"h. c #6C7483",
"j. c #6F7989",
"k. c #797C85",
"l. c #747B8A",
"z. c #797F8D",
"x. c #777F90",
"c. c #A17A85",
"v. c #7B818E",
"b. c #77818F",
"n. c #7C8494",
"m. c #82838B",
"M. c #94828E",
"N. c #838693",
"B. c #858A96",
"V. c #858C9B",
"C. c #898E9A",
"Z. c #808798",
"A. c #9F8A95",
"S. c #8D929D",
"D. c #84929F",
"F. c #92959D",
"G. c #A4828B",
"H. c #A18D98",
"J. c #A4959F",
"K. c #888FA1",
"L. c #8D94A1",
"P. c #8A94A5",
"I. c #9196A2",
"U. c #949AA6",
"Y. c #959CAA",
"T. c #999EAB",
"R. c #999DA6",
"E. c #9BA1AD",
"W. c #92A0AC",
"Q. c #9DA3B1",
"!. c #A1A6B3",
"~. c #A3A9B6",
"^. c #A5ACBA",
"/. c #A8AEBB",
"(. c #ACB2BE",
"). c #A7B0BD",
"_. c #ACB3C1",
"`. c #A6B3C1",
"'. c #B1B6C4",
"]. c #B3B9C7",
"[. c #B4BBC9",
"{. c #B8BECC",
"}. c #BBC1CE",
"|. c #BDC4D2",
" X c #C1C7D5",
".X c #C4C9D6",
"XX c #C9CEDD",
"oX c #C6CCDA",
"OX c None",
/* pixels */
"OXOXOXOXOXOXOXOXOXOXOXOXOXl 1 < ; + , 1 < , ; - < l ` | OXOXOXOXOXOXOXOXXOXOXOOX",
"OXOXOXOXOXOXOXOXOXOXOX[ d : - + - % + + - - ; - - < 1 1 ] OXOXOXOXOXOXOXOXOXXOOX",
"OXOXOXOXOXOXOXOXOXOXOXg : : + + + - ; + + + + + - - , , , l ;.OXOXOXOXOXOXOXOXOX",
"OXOXOXOXOXOXOXOXOXOXx + : - + + + + + @ + : + + - - - , , d ] OXOXOXOXOXOXOXOXOX",
"OXOXOXOXOXOXOXOXOXg % ; + + + + @ + @ . o + + + - - - - - ; k | OXOXOXOXOXOXOXOX",
"OXOXOXOXOXOXOXe : + ; + O + % X . o o o o o o + + + o % ; - , e [ OXOXOXOXOXOXOX",
"OXOXOXOXOXOXOX1 + + @ . @ + + + o o . o @ . O . + O O + ; ; , ; ' OXOXOXOXOXOXOX",
"OXOXOXOXOXOXOX< + @ .   . . O O o . . . + O % % . + + + + + , % P OXOXOXOXOXOXOX",
"OXOXOXOXOXOXOX% + O O   .   . + % & & % % + % % . + + + % - O    .OXOXOXOXOXOXOX",
"OXOXOXOXOXOXOX1 :     . @ . . 4 r p q   4 % % 9 & 9 = .     k  .;.OXOXOXOXOXOXOX",
"OXOXOXOXOXOXOXOXOX..k   X # * r p y a % * i a q 9 9 = f f ] OXOXOXOXOXOXOXOXOXOX",
"OXOXOXOXOXOXOXOXOXOXOXf   + O 9 9 q C C C H S u q q X x { OXOXOXOXOXOXOXOXOXOXOX",
"OXOXOXOXOXOXOXOXOXOXOXx & 9 u a p r y S H S y t u m b { ;.OXOXOXOXOXOXOXOXOXOXOX",
"OXOXOXOXOXOXOXOXOXOXOXOXw t u 9 % 9 * 7 S n * & + e r I &.OXOXOXOXOXOXOXOXOXOXOX",
"OXOXOXOXOXOXOXOXOXOXOXP t r 4 0 9 t t 8 Q Q a u t j F o.&.OXOXOXOXOXOXOXOXOXOXOX",
"OXOXOXOXOXOXOXOXOXOXOXi r v m G S S M v ( +.R Q / / @.@.&.OXOXOXOXOXOXOXOXOXOXOX",
"OXOXOXOXOXOXOXOXOXOXOXV 8 n E R T T M Y +.i.+.( O.+./ / %.OXOXOXOXOXOXOXOXOXOXOX",
"OXOXOXOXOXOXOXOXOXOXOXI y c M M E Y D Y ( +.O.! T ( R ^ %.OXOXOXOXOXOXOXOXOXOXOX",
"OXOXOXOXOXOXOXOXOXOXOXOXV 7 n D Y E A 4 v n 7 ! / Q R ^ %.OXOXOXOXOXOXOXOXOXOXOX",
"OXOXOXOXOXOXOXOXOXOXOXOX~ y c m D S v i i h A U T K G o.OXOXOXOXOXOXOXOXOXOXOXOX",
"OXOXOXOXOXOXOXOXOXOXOXOXOXj y n b r p i h N A h u G J o.OXOXOXOXOXOXOXOXOXOXOXOX",
"OXOXOXOXOXOXOXOXOXOXOXOXOXOXa c v u A W W W ! U b G I #.OXOXOXOXOXOXOXOXOXOXOXOX",
"OXOXOXOXOXOXOXOXOXOXOXOXOXOXh i b b y v N v v B Z C ~ OXOXOXOXOXOXOXOXOXOXOXOXOX",
"OXOXOXOXOXOXOXOXOXOXOXOXOXOXw u i y b b v M C S J F L #.OXOXOXOXOXOXOXOXOXOXOXOX",
"OXOXOXOXOXOXOXOXOXOXOXOXOX` 3 t u b m H M G H C F h B [ OXOXOXOXOXOXOXOXOXOXOXOX",
"OXOXOXOXOXOXOXOXOXOXOXOXB.) 2 u 0 q y b m a a a u u F # m.OXOXOXOXOXOXOXOXOXOXOX",
"OXOXOXOXOXOXOXOXOXOXOX_.I. .$ a y 0 6 9 0 9 6 r y b F   l.]._.}.OXOXOXOXOXOXOXOX",
"OXOXOXOXOXOXOXOX_._._.^.Y.k.  w y y t t 7 t y b b b a   B.Q.T.|.oX}..XOXOXOXOXOX",
"OXOXOXOXOXOX|.].[./.E.V.D.I.:.  w r y y y c y a p u # ) E.K.P.].'./. XXX.XOXOXOX",
"OXOXOXOX}.|.}.^.L.Y.Y.K.n.n.S...  9 0 7 p r p 7 q 9   z.Q.K.E.`.].{.{.'.{.XX.X X",
"OXOX{.|.{.!.U.Y.T.Y.T.Y.n.l.Z.F.,.  9 u r 7 6 0 9   X.x.K.K.^.].{.{.(.!.!.!.].XX",
"}..X_./.Q.I.Z.S.P.E.!.Y.n.b.j.Z.4.<.# # 4 r t 2 2 =.1.' g.K.Q.]./.!.Q.~.!.!.(.'.",
"].(._.(.~.Q.I.L.U.W.U.T.P.V.l.>.s ,.2.{ V c 5 L ,.2.>.z.j.Y.E.E.U.E.Q.~.Q.~.~./.",
"/./.(.'.Y.U.U.T.Y.I.C.L.T.Y.V.h.=._ =.k.;.P U ,.=.} h.L.L.E.U.Y.Q._./.^.T.Q.T.!.",
"~.).).E.v.C.S.U.Y.^.E.S.I.I.Y.V.g.=.*.} -.-.3.-.-.h.n.S.S.I.I.~.!.(.]._.T.T.Y.Q.",
"H.).E.v.N.S.B.U.!.Q.T.P.P.C.L.I.L.N.z.l.x.k.h.h.l.B.C.C.C.Y.U.~.^.^.'.[.Q.T.W.A.",
"9.G.D.b.C.U.U.!.^.!.!.I.I.U.I.F.R.U.L.V.C.F.S.B.N.C.C.S.B.U.U.U.T.Q._.]._.Q.c.9.",
"e.6.d.N.W.E.!.!.^.Q.!.T.I.I.T.L.U.R.B.z.U.U.T.I.V.L.S.I.B.C.S.S.F.I.Q.`._.f.6.q.",
"e.t.0.y.G.!.).!.~.T.!.T.U.S.U.I.I.U.B.m.U.I.R.R.I.Y.C.I.S.S.S.S.U.U.T.G.s.7.u.u.",
"e.e.t.q.6.d.J.!.!.T.!.T.E.U.R.U.I.U.S.z.!.T.E.U.S.U.F.U.R.R.U.S.I.M.d.5.w.y.q.t."
};
