/* XPM */
static char *result[] = {
/* columns rows colors chars-per-pixel */
"40 40 229 2 ",
"   c #010102",
".  c #03030A",
"X  c #0B0709",
"o  c #0D0A0C",
"O  c #0F0000",
"+  c #110B0D",
"@  c #170906",
"#  c #0B0B12",
"$  c #050917",
"%  c #130F12",
"&  c #190E14",
"*  c #07151A",
"=  c #141114",
"-  c #1B1413",
";  c #15151C",
":  c #1B151B",
">  c #1D191C",
",  c #2C1609",
"<  c #251513",
"1  c #27191B",
"2  c #391B16",
"3  c #2A1206",
"4  c #36261A",
"5  c #2F291D",
"6  c #1B1B23",
"7  c #161C2A",
"8  c #231C22",
"9  c #132530",
"0  c #25232A",
"q  c #2B262C",
"w  c #282225",
"e  c #3D2B24",
"r  c #352826",
"t  c #393439",
"y  c #342F30",
"u  c #4E1600",
"i  c #661E1D",
"p  c #452A1B",
"a  c #562D1D",
"s  c #49321F",
"d  c #502E14",
"f  c #722E0A",
"g  c #493429",
"h  c #533A25",
"j  c #58392A",
"k  c #483936",
"l  c #482C24",
"z  c #752D2A",
"x  c #663924",
"c  c #723620",
"v  c #5D422C",
"b  c #5C4534",
"n  c #5B463A",
"m  c #574539",
"M  c #63462C",
"N  c #7B462C",
"B  c #634934",
"V  c #654938",
"C  c #784E3B",
"Z  c #6D523C",
"A  c #67523D",
"S  c #7F553D",
"D  c #343947",
"F  c #453E46",
"G  c #3E424C",
"H  c #384758",
"J  c #484448",
"K  c #5A4D49",
"L  c #584745",
"P  c #434856",
"I  c #5D585A",
"U  c #5D504B",
"Y  c #634B42",
"T  c #674C46",
"R  c #6D5543",
"E  c #6B5549",
"W  c #705543",
"Q  c #735B4B",
"!  c #775946",
"~  c #635555",
"^  c #6A5956",
"/  c #755D53",
"(  c #7C6453",
")  c #79615B",
"_  c #7D695E",
"`  c #73635D",
"'  c #7D624C",
"]  c #4C5462",
"[  c #4E5B6D",
"{  c #535B6C",
"}  c #5E6676",
"|  c #6A6668",
" . c #7E6962",
".. c #796661",
"X. c #7D7272",
"o. c #7C706E",
"O. c #A90000",
"+. c #872D09",
"@. c #B1261E",
"#. c #9D2D2C",
"$. c #993732",
"%. c #AC2C2B",
"&. c #AA2A2A",
"*. c #B02F2D",
"=. c #AC302E",
"-. c #A9372E",
";. c #B2312E",
":. c #AD3432",
">. c #AD3E3E",
",. c #B33331",
"<. c #B73632",
"1. c #AB2D30",
"2. c #88481B",
"3. c #95491C",
"4. c #AB551C",
"5. c #B35E1D",
"6. c #AD4317",
"7. c #9E5120",
"8. c #8B5838",
"9. c #985339",
"0. c #994D22",
"q. c #A25525",
"w. c #A85C27",
"e. c #B25D21",
"r. c #AC4635",
"t. c #B75134",
"y. c #AB5433",
"u. c #B3652C",
"i. c #B6662A",
"p. c #AA6637",
"a. c #BA6C33",
"s. c #B66B37",
"d. c #BD743F",
"f. c #B3723E",
"g. c #C26E34",
"h. c #CA7A3B",
"j. c #C57638",
"k. c #D07C3B",
"l. c #964D47",
"z. c #AB4D46",
"x. c #86644D",
"c. c #9A6643",
"v. c #836A55",
"b. c #856C5B",
"n. c #87685E",
"m. c #956D52",
"M. c #8E725E",
"N. c #A66849",
"B. c #AA7145",
"V. c #B6764B",
"C. c #BA7E55",
"Z. c #B26945",
"A. c #8E5E60",
"S. c #856D63",
"D. c #8B6C65",
"F. c #846964",
"G. c #976B6C",
"H. c #8C7465",
"J. c #8C756B",
"K. c #8E796B",
"L. c #847267",
"P. c #927B6C",
"I. c #947668",
"U. c #8C7874",
"Y. c #937F74",
"T. c #997D76",
"R. c #9B6D74",
"E. c #B97070",
"W. c #C97E42",
"Q. c #C37944",
"!. c #D07F41",
"~. c #958174",
"^. c #9B8474",
"/. c #958279",
"(. c #9C857A",
"). c #9C887A",
"_. c #AB856A",
"`. c #A28B7D",
"'. c #A1857D",
"]. c #B78E74",
"[. c #CD8548",
"{. c #D68748",
"}. c #DF9252",
"|. c #C58154",
" X c #C89378",
".X c #6C7487",
"XX c #717789",
"oX c #768093",
"OX c #9B8A84",
"+X c #9B8985",
"@X c #898D99",
"#X c #A48D83",
"$X c #A48A8A",
"%X c #AB9285",
"&X c #AB958D",
"*X c #AE998E",
"=X c #A49189",
"-X c #B2998E",
";X c #B69889",
":X c #AD9B93",
">X c #A99A95",
",X c #B19B93",
"<X c #B49F99",
"1X c #B3A29C",
"2X c #BAA59D",
"3X c #BAA59B",
"4X c #BCAAA3",
"5X c #BEADAB",
"6X c #B8A3A2",
"7X c #AAA8AF",
"8X c #C7988A",
"9X c #C1ABA4",
"0X c #C4ADAB",
"qX c #CAADA5",
"wX c #C3B2AD",
"eX c #CEB0AD",
"rX c #C6B3B2",
"tX c #CAB5B3",
"yX c #CEB8B5",
"uX c #CDBCBB",
"iX c #D3BCBB",
"pX c #ACB3C5",
"aX c #B3BDCC",
"sX c #BCC0CE",
"dX c #C6CFDE",
"fX c #E8CBC6",
"gX c #DDE7F3",
"hX c #E5EEFC",
"jX c None",
/* pixels */
"jXjXjXjXjXjXjXjXjXjXjXjXjXjXjXjXjXjXjXjXjXjXjXjXjXjXjXjXjXjXjXjXjXjXjXjXjXjXjXjX",
"jXjXjXjXjXjXjXjXjXjXjXjXjXjXjXjXjXjXjXjXjXjXjXjXjXjXjXjXjXjXjXjXjXjXjXjXjXjXjXjX",
"jXjXjXjXjXjXjXjXjXjXjXjXjXjXjX; ; 0 0 jXjXjXjXjXjXjXjXjXjXjXjXjXjXjXjXjXjXjXjXjX",
"jXjXjXjXjXjXjXjXjXjXjX# = % o # # 6 q = o = = % 8 jXjXjXjXjXjXjXjXjXjXjXjXjXjXjX",
"jXjXjXjXjXjXjXjXjXjXo o . . # # ; # > =     % - 1 k k jXjXjXjXjXjXjXjXjXjXjXjXjX",
"jXjXjXjXjXjXjXjXjX= X   . # # #       1 <     o o r k t t jXjXjXjXjXjXjXjXjXjXjX",
"jXjXjXjXjXjXjXjXjXX   X o # % > r L ( b.Q g < o = . : w q q jXjXjXjXjXjXjXjXjXjX",
"jXjXjXjXjXjXjXjX%     . X o - k ^ L.#X%X).H.E 4 : 8 # 6 8 w jXjXjXjXjXjXjXjXjXjX",
"jXjXjXjXjXjXjXjX%     X o + , E K./.-X3X,X#XI.L < - = ; q > y jXjXjXjXjXjXjXjXjX",
"jXjXjXjXjXjXjXjX> X   X   < L _ ~.*X2X2X9X4X<XU.g + % = 0 ; q jXjXjXjXjXjXjXjXjX",
"jXjXjXjXjXjXjXjX= o +   e n K K ..&X2X4X6XOXX.X.^ < X % ; q jXjXjXjXjXjXjXjXjXjX",
"jXjXjXjXjXjXjXjX: o   @ E  .J. .) S.%X9X=Xb. ./.+X~   : : t jXjXjXjXjXjXjXjXjXjX",
"jXjXjXjXjXjXjXjXjX=   @ _ J./ K L T Y.qX&XT F ~  . .r 6 F jXjXjXjXjXjXjXjXjXjXjX",
"jXjXjXjXjXjXjXjXjX1   - K.J. . .` S.T.4X6X+X/.$X>X:X$Xt | jXjXjXjXjXjXjXjXjXjXjX",
"jXjXjXjXjXjXjXjXjXjX; y ~.#X,X-X-X#X`.0XrXrXtXtXtXtX5XX.jXjXjXjXjXjXjXjXjXjXjXjX",
"jXjXjXjXjXjXjXjXjXjXjXE (.%X-X3X-XT.(.2X1X6XtXiXyXrX5X6XjXjXjXjXjXjXjXjXjXjXjXjX",
"jXjXjXjXjXjXjXjXjXjXjXn.~.%X;X1X%XD./ I.J.$XeXyXyX0XrX6XjXjXjXjXjXjXjXjXjXjXjXjX",
"jXjXjXjXjXjXjXjXjXjXjXU.#X`.%X].%X#X$X,X5X0X0X9X0X4XiXjXjXjXjXjXjXjXjXjXjXjXjXjX",
"jXjXjXjXjXjXjXjXjXjXjXjX).`.`.^.S.D.D.G.T.$X#X1X9XrX5XjXjXjXjXjXjXjXjXjXjXjXjXjX",
"jXjXjXjXjXjXjXjXjXjXjXjXjX`.`.^.S.A.A.G.G.$X#X*X4X0XjXjXjXjXjXjXjXjXjXjXjXjXjXjX",
"jXjXjXjXjXjXjXjXjXjXjXjXjXK.P.^.'.(.T.I.#X2X2X:X:X1XjXjXjXjXjXjXjXjXjXjXjXjXjXjX",
"jXjXjXjXjXjXjXjXjXjXjXjXjXjXH.P.^.`.&X*X6X9X4X:X:X>XjXjXjXjXjXjXjXjXjXjXjXjXjXjX",
"jXjXjXjXjXjXjXjXjXjXjXjXjXjXH.v.P.#X*X<X2X0X1XOX1X>Xo.jXjXjXjXjXjXjXjXjXjXjXjXjX",
"jXjXjXjXjXjXjXjXjXjXjXjXm g P.H.( M.K.K.H.Y.OX*XwX;Xm.K.m ^ jXjXjXjXjXjXjXjXjXjX",
"jXjXjXjXjXjXjXjXjXn m B s v I.^.M.( ( _ ~.=X1X4XwX8XB._ ( B U jXjXjXjXjXjXjXjXjX",
"jXjXjXjXjXR 4 e v v b M , 2.M.).~.~.H.M.=X1X4X5XwX XB.' v.R R y jXjXjXjXjXjXjXjX",
"jXjXjXjXY.v.4 s v h v M 4 3.c.^.).~.~.~.OX1X2XwX*X[.c.' _ A A e 6 jXjXjXjXjXjXjX",
"jXjXjXjXOXH.A h v h v B p f u.x.~.~.~.).=X:X3X(.f.{.8.Q ' A n v F jXjX>X>XjXjXjX",
"jXjXjX,X` n ( Q b v M Z d f w.p.S b.H.H.T.T.` 9.{.d.c Z ' R B v W L.@X7X7XjXjXjX",
"jX2XqX-XL   ( v.Z Z Z 5 u 0.3.7.u.c.L.' W W f.}.[.s.a Z R Z s m E ^ dXpXgXjXjXjX",
"jX^ / '. .  Y ( R A 5 ~ N.e.w.7.7.s.|.m.M p.{.}.W.f., Z Z b 4 B Q D dXpXhXfXjXjX",
"F r   q L   K I - 6 ; Y 8.u.a.u.w.4.7.N R p.+.p.W.j.A 5 B v h Q | P aX@X7X XjX1.",
"g 7 &   1 2 J { [ G   2 Z V.j.a.q.q.s.f Z Z.e.p.V.C.{   s j M ..G D H ] J.6.&.,.",
"#.p $ & 1 &   XXXX]   r V m.a.g.w.u.j.3.Z W.u.W.a.C H t   , B ~   t 9 jXz.&.,.1.",
"%.:.z . . x p } XX[   . l c w.{.j.i.h.d._.Q.u.W.i.T ] q +   J J   jXjX%.;.:.=.=.",
"1.1.1.$.F C f ] .X@XJ   x Z.u.{.!.i.h.h. XQ.e.W.q.J D O 4 j k * jXjX;.<.:.%.=.=.",
"1.=.=.;.:.$.f ~ 5XiX+XO k N.t.!.{.i.k.j.].C.5.h.w.^ 9 @ s g 2 &.=.<.,.=.%.:.=.=.",
"=.=.=.=.:.,.&.r.8XeXuXJ * x.Z.g.{.g.h.g._.V.e.j.p.D.N N z 1.;.<.,.=.=.=.=.=.=.=.",
"=.=.=.=.=.=.:.&.O.>.E.l.i x 9.u.{.h.j.j._.V.4.a.9.l.r.<.;.;.;.=.%.=.=.=.=.=.=.=.",
"=.=.=.=.=.=.%.:.:.&.O.&.1.&.-.-.t.t.t.t.z.r.-.:.1.*.&.*.=.=.=.=.:.%.=.=.%.=.=.=."
};
