/* XPM */
static char *result[] = {
/* columns rows colors chars-per-pixel */
"40 40 235 2 ",
"   c #010101",
".  c #090406",
"X  c #04040A",
"o  c #090709",
"O  c #0C0A0D",
"+  c #150806",
"@  c #120D0E",
"#  c #030716",
"$  c #0B0C13",
"%  c #120F13",
"&  c #0C1219",
"*  c #131216",
"=  c #13131B",
"-  c #1A1418",
";  c #1C191D",
":  c #360004",
">  c #2E1307",
",  c #271209",
"<  c #261516",
"1  c #211A1C",
"2  c #361915",
"3  c #27251F",
"4  c #3A261C",
"5  c #030E28",
"6  c #161923",
"7  c #1C1C23",
"8  c #211C21",
"9  c #1D222C",
"0  c #192A3A",
"q  c #222126",
"w  c #25252C",
"e  c #2B272B",
"r  c #352828",
"t  c #282A35",
"y  c #2B2C34",
"u  c #382F32",
"i  c #22323C",
"p  c #2D313B",
"a  c #383337",
"s  c #33333C",
"d  c #3D393D",
"f  c #420500",
"g  c #471A01",
"h  c #472819",
"j  c #543717",
"k  c #662C12",
"l  c #452A24",
"z  c #4A3529",
"x  c #553A27",
"c  c #51382D",
"v  c #483836",
"b  c #6C2F2B",
"n  c #7F4316",
"m  c #5C432E",
"M  c #4E4038",
"N  c #5A4539",
"B  c #63452D",
"V  c #774527",
"C  c #654937",
"Z  c #69513C",
"A  c #74553D",
"S  c #002C41",
"D  c #353945",
"F  c #3B3B43",
"G  c #3D3E49",
"H  c #433B42",
"J  c #3F4047",
"K  c #3D424B",
"L  c #3A4456",
"P  c #43434C",
"I  c #48444A",
"U  c #574846",
"Y  c #5C534D",
"T  c #464A55",
"R  c #4B4B53",
"E  c #564C52",
"W  c #4C525A",
"Q  c #54555C",
"!  c #5B565A",
"~  c #5A555D",
"^  c #6A4E43",
"/  c #6E5643",
"(  c #68544A",
")  c #725946",
"_  c #745C4C",
"`  c #685757",
"'  c #745A53",
"]  c #7A624C",
"[  c #6C6159",
"{  c #7A6459",
"}  c #464862",
"|  c #4C5463",
" . c #555964",
".. c #5B5C63",
"X. c #675B66",
"o. c #5C626C",
"O. c #5D6675",
"+. c #6C6567",
"@. c #62636C",
"#. c #786964",
"$. c #7F716B",
"%. c #696A75",
"&. c #736D79",
"*. c #6E7077",
"=. c #6C727C",
"-. c #7C7373",
";. c #78767C",
":. c #900700",
">. c #8D2827",
",. c #A92B29",
"<. c #B02C28",
"1. c #A2312F",
"2. c #AC302E",
"3. c #B1322F",
"4. c #AD3736",
"5. c #B13231",
"6. c #8C421C",
"7. c #984A1E",
"8. c #A5581F",
"9. c #9C5527",
"0. c #8D4F31",
"q. c #985D3A",
"w. c #A25423",
"e. c #A8592A",
"r. c #A75334",
"t. c #9B663E",
"y. c #AF6327",
"u. c #B4632B",
"i. c #B76529",
"p. c #AB6637",
"a. c #B76B35",
"s. c #BC7139",
"d. c #CB7634",
"f. c #C67639",
"g. c #903E40",
"h. c #8F564C",
"j. c #A3584B",
"k. c #8A644B",
"l. c #966547",
"z. c #836857",
"x. c #846A5C",
"c. c #8C735D",
"v. c #987157",
"b. c #B36A4A",
"n. c #B0754C",
"m. c #A87B5C",
"M. c #935D62",
"N. c #846C67",
"B. c #92636D",
"V. c #8B7363",
"C. c #8A766B",
"Z. c #927467",
"A. c #927C6D",
"S. c #877A78",
"D. c #947C72",
"F. c #987C76",
"G. c #AF7371",
"H. c #C77D43",
"J. c #BD8158",
"K. c #968173",
"L. c #9B8375",
"P. c #9A867A",
"I. c #9C857B",
"U. c #A0857C",
"Y. c #A38B7D",
"T. c #B68F73",
"R. c #CA844B",
"E. c #D68848",
"W. c #E39554",
"Q. c #C3977A",
"!. c #6E7686",
"~. c #757A87",
"^. c #7B7B83",
"/. c #8A7A84",
"(. c #7D8289",
"). c #768AA1",
"_. c #888589",
"`. c #89848B",
"'. c #9E8B83",
"]. c #96888A",
"[. c #838993",
"{. c #8C8B92",
"}. c #988C93",
"|. c #8A919B",
" X c #949499",
".X c #A28C83",
"XX c #A68B85",
"oX c #A99387",
"OX c #A6948C",
"+X c #AB948C",
"@X c #B2978B",
"#X c #A99894",
"$X c #B49D94",
"%X c #B39D9A",
"&X c #B5A39B",
"*X c #BAA49B",
"=X c #BBA59C",
"-X c #8995A5",
";X c #979BA5",
":X c #A49DA4",
">X c #9EA5AE",
",X c #8EA3B9",
"<X c #A9A7AA",
"1X c #B9A5A2",
"2X c #BCAAA4",
"3X c #BEADAB",
"4X c #A5ACB5",
"5X c #AFB1BA",
"6X c #B8B6B9",
"7X c #C89A8A",
"8X c #C1ACA5",
"9X c #C4AEAC",
"0X c #C3B2AD",
"qX c #CAB3AF",
"wX c #CAB7B6",
"eX c #D1B6B7",
"rX c #BCBEC5",
"tX c #D3BFCD",
"yX c #BCC1C6",
"uX c #B5C0CF",
"iX c #C8C7C9",
"pX c #D5CCD6",
"aX c #C9D1DD",
"sX c #D6D7DB",
"dX c #E5D0D3",
"fX c #C6D1E1",
"gX c #D8DCE2",
"hX c #DDE2E7",
"jX c #E5E5E6",
"kX c #EBEBEC",
"lX c #EAEEF1",
"zX c #EBF1F8",
"xX c #F2F3F4",
"cX c #F7FBFC",
"vX c #FCFDFE",
/* pixels */
"/.{.(.P.-.U Q ..O.*.=.=.W & y         y *.Q o.@.o.....=.@.y   _.;.p E ^.K : 1.,.",
"(.P.K.#.;. Xo.9 J I :       * F R Q Q ! ....W W d y     9 -   o.*.  e {.;.  R M.",
"-.#.^. X XK       & v z <     q P s w w = #   X J t y q 9 9 = 9 ~.W J a -.I   [.",
"Y _.4X(.#   * O $   # a r , ; % 9 y 9 * . = =   9 @.d 9 O % 9 = Q *.= # X.~   ^.",
" X;XK   p i = &   .   # 7 < % $ O & e 8 o = - 9   E ` 9 w o o &   *.P y D X.P D ",
"o.  p T s 9 p t   . O O   X o $ & & 1 1 O   o O 1 o v a y y w J y G %.t 9 Q R p ",
"& s T I J K s t q * X X X O $ $ O       +   X O @ 1 z v v F 7 q 7 # F @.J P @.W ",
"; X 7 d I R P s 6 o     o $ $ * @ r v ( ( c ,   . O @ e y r 8 s s y w P p 6 W  .",
"      O y H I d $     . . O * e U ' D.Y.I.C.' c < ; -   6 8 w d 9 o X   t s & P ",
"= $   o   * y a o     X O @ , z { C..X$X$XoXK.' h - 1 * = e ; e 9 $ % $ J R F K ",
"$ 7 = w *     ; ;   . o o . l _ D.'.$X=X=X=X1X+XN.l $ * * 8 6 8 d t s p F K K o.",
"X   $ y 7 X   X - o O   < c U ` ' '.=X8X8X=XOX/.$.M + % % 1 8 F o.W  .o.=.~.(.@.",
"s y X ; * 6 ; ; * . .   C ' #.[ ` { oX*X8X.X' N._.F.U   - 8 . ;. X(._._.{.{.}.iX",
"D 5 t D *   o q e @   + [ C.C.' ` ' z.$X8XS.^ Y +.N.' + 7 8 I ;.(.^._._.}.{.}.sX",
"uX-X} D y y & =   .   . V.C.( ` Y ( { @X9XOXN.#.F.].'.S.r R gXlXxXcXvXvXvXvXxXkX",
":XdXpX;Xo.0 t y R P . q D.I.oXoXXXXXL.#X9X3X9X2X9X9X0X8XU 6XvXvXkXjXjXkXkXjXkXcX",
"e X./.wXgX5X!.| !.T a U K.oX@X*X%XoXU.$XwX1X9XwXeXwXwX9XOXjXvXvXgX&.v X.;.~ E +.",
"X.| T ~ /.wXtXrX[.~...{ K.Y.@X*X@XF.z.N.F.B.%XqXiXeX0X3X#XS. XjXvX6Xs I T @. .E ",
"X.E ~ .. .| /.[.(.>X|.N.K.Y.T.$X@XXXF.Y.#X1X9X9XqXqX8X0XiX6XpXlXkX<X;XyXaXjXlXhX",
"[.t X 5 | H i T %.(.;X<XY.P.Y.Y.U.F.F.F.XX#X%X%X$X8X8X3XiXsXiX<XiXxXvXvXvXlXzXvX",
"^.~ H {.<X .  a  .(.~.%.[ P.P.Y.z.' h.M.M.B.F.F.$X2X2X_.      D ;XkXvXxXlXkXxXxX",
"^.^.+.5XgX`.  R  .~.~...P K.K.K.U.U.F.Z.F.XX1X&X#X+X2XsXsXsXgXgXsXhXxXxXkXlXkXhX",
"E E X.G  .F   R ~.*./.~.P { c.A.L.U.Y.Y.OX%X=X=X#XoX#XiXpXiXiXiXiX<X:X4XhXfX-X_.",
"m h > U X.G    ./.`./.^.5X6XV.x.Z.Y.@X&X%X9XqX2X'.$X].I +.&.X.!.} =.^.K ;X5X-X[.",
"Z v g U ;.P   ..{.{._.>X].! V.Z.] K.L.L.P.P.'.'.#X3X@Xc.K.[ [ {.5X;X6X X!.-X).|.",
"x ( B U =.F   +._.S.-.$.z : c.K.c.{ ] z.#.K.'.#X2X3XQ.t.{ ] j Y {.[.%.O.gXhX,XuX",
"Q u v ! #.M r c m j j j > V v.K.K.K.c.#.L.OX&X2X3X0XQ.J.] { / / 4 !.(.>XuX5XyXyX",
"O.5 >X6X] m , z B m B m 4 n t.K.K.K.K.K.P.OX&X2X0X=XR.n./ K.Z _ v X 5 >XuX4XyX|.",
"sXsXcXjXA./ M z j m m B h k i.k.K.L.K.K.Y.#X&X2XOXn.E.t./ ] / ) c v 7 L {.6XgXlX",
"kXiXiXOX[ ] ] C m m m Z j k 9.p.A c.K.c.L.Y..X$.q.E.R.V / ] ) Z c c ' -./.<X:X<X",
"!..X@XZ.  N z.] Z B A M f 6.6.8.p.q.z.z.{ { ) q.E.R.p.j Z ) / Z h ( ^ `.uXuXlXeX",
"-.I.Y.I.q a ] ] ) Z z F 0.y.8.7.9.p.n.J.Z V p.W.W.H.s.g Z / m m 4 ' j !.fXrXlXdX",
"r   r #.r   ' U 4 3 = ' l.y.a.u.w.w.y.p.C h.7.r.H.H.s.x r Z B x j $.r |.aX-XpX7X",
"v 8     r + @.T T p   2 V b.s.s.u.w.e.w.h l.u.w.r.H.H.+.  z B B Z +.9 @.O.} Z.b.",
"2 X - 8 r   G !.!.K   u C m.f.a.e.w.f.a.g l.f.i.H.a.z.L p . 4 x [ T   G S ~.j.,.",
"1.b #   < g F ~.!.|   & l B 9.d.d.y.f.d.l.m.f.e.R.a.b | d O   q ! e X 5 H j.<.2.",
"2.2.>.v H 0.h O.O.!.7   c j.y.H.E.i.f.d.H.7Xf.u.H.w.H E 1 > l v d   o b ,.<.2.2.",
"2.2.5.4.g.0.: &.:X0XN.  l b.a.d.E.f.s.d.G.T.f.u.f.9.E 0   l x 1 < b ,.2.3.,.2.2.",
"2.2.2.,.,.4.:.G.qXeX3Xr 3 h.b.i.E.d.f.d.b.T.a.u.f.t.N.m x l b >.,.3.3.2.,.2.2.2.",
"2.2.2.2.2.,.5.<.4.G.7X' 2 c j.e.E.d.f.d.b.T.p.i.s.t.h.r.r.,.<.3.2.2.2.2.5.2.2.2."
};
